<svg width="1200" height="630" viewBox="0 0 1200 630" fill="none" xmlns="http://www.w3.org/2000/svg">
<g clip-path="url(#clip0_3128_4)">
<path d="M1156 0H44C19.6995 0 0 19.6995 0 44V586C0 610.301 19.6995 630 44 630H1156C1180.3 630 1200 610.301 1200 586V44C1200 19.6995 1180.3 0 1156 0Z" fill="url(#paint0_linear_3128_4)"/>
<path d="M102 148H1098" stroke="white" stroke-opacity="0.06"/>
<path d="M102 482H1098" stroke="white" stroke-opacity="0.06"/>
<path d="M222 102H138C118.118 102 102 118.118 102 138V222C102 241.882 118.118 258 138 258H222C241.882 258 258 241.882 258 222V138C258 118.118 241.882 102 222 102Z" fill="#05DF72" stroke="#05DF72" stroke-width="2"/>
<path d="M166.536 229V190.472L133.96 136.456H160.84L179.144 169.352L197.256 136.456H224.456L191.496 190.472V229H166.536Z" fill="white"/>
<path d="M292.614 107.545H295.034L299.875 115.693H300.08L304.92 107.545H307.341L301.034 117.807V125H298.92V117.807L292.614 107.545ZM321.529 107.545H323.643V119.102C323.643 120.295 323.362 121.361 322.799 122.298C322.242 123.23 321.455 123.966 320.438 124.506C319.421 125.04 318.228 125.307 316.859 125.307C315.489 125.307 314.296 125.04 313.279 124.506C312.262 123.966 311.472 123.23 310.91 122.298C310.353 121.361 310.075 120.295 310.075 119.102V107.545H312.188V118.932C312.188 119.784 312.376 120.543 312.751 121.207C313.126 121.866 313.66 122.386 314.353 122.767C315.052 123.142 315.887 123.33 316.859 123.33C317.83 123.33 318.665 123.142 319.364 122.767C320.063 122.386 320.597 121.866 320.967 121.207C321.342 120.543 321.529 119.784 321.529 118.932V107.545ZM333.25 125H327.864V107.545H333.489C335.182 107.545 336.631 107.895 337.835 108.594C339.04 109.287 339.963 110.284 340.605 111.585C341.247 112.881 341.568 114.432 341.568 116.239C341.568 118.057 341.244 119.622 340.597 120.935C339.949 122.241 339.006 123.247 337.767 123.952C336.528 124.651 335.023 125 333.25 125ZM329.977 123.125H333.114C334.557 123.125 335.753 122.847 336.702 122.29C337.651 121.733 338.358 120.94 338.824 119.912C339.29 118.884 339.523 117.659 339.523 116.239C339.523 114.83 339.293 113.616 338.832 112.599C338.372 111.577 337.685 110.793 336.77 110.247C335.855 109.696 334.716 109.42 333.352 109.42H329.977V123.125ZM345.114 125V107.545H355.648V109.42H347.227V115.318H355.102V117.193H347.227V123.125H355.784V125H345.114ZM360.173 107.545L365.355 122.239H365.56L370.741 107.545H372.957L366.548 125H364.366L357.957 107.545H360.173Z" fill="white"/>
<path d="M313.83 206H296.298V156.545H313.974C318.949 156.545 323.231 157.536 326.821 159.516C330.411 161.48 333.172 164.305 335.104 167.991C337.052 171.678 338.026 176.089 338.026 181.224C338.026 186.376 337.052 190.803 335.104 194.506C333.172 198.208 330.395 201.05 326.773 203.03C323.167 205.01 318.852 206 313.83 206ZM306.754 197.041H313.395C316.486 197.041 319.086 196.494 321.195 195.399C323.32 194.288 324.913 192.574 325.976 190.256C327.054 187.921 327.594 184.911 327.594 181.224C327.594 177.57 327.054 174.584 325.976 172.266C324.913 169.947 323.328 168.241 321.219 167.146C319.11 166.052 316.51 165.504 313.419 165.504H306.754V197.041ZM345.578 206V168.909H355.865V206H345.578ZM350.745 164.128C349.216 164.128 347.904 163.621 346.809 162.607C345.731 161.576 345.191 160.345 345.191 158.912C345.191 157.495 345.731 156.28 346.809 155.266C347.904 154.235 349.216 153.72 350.745 153.72C352.275 153.72 353.579 154.235 354.657 155.266C355.752 156.28 356.299 157.495 356.299 158.912C356.299 160.345 355.752 161.576 354.657 162.607C353.579 163.621 352.275 164.128 350.745 164.128ZM380.815 220.682C377.483 220.682 374.625 220.223 372.243 219.305C369.876 218.404 367.993 217.172 366.592 215.611C365.192 214.049 364.282 212.295 363.864 210.347L373.378 209.067C373.668 209.807 374.126 210.5 374.754 211.143C375.382 211.787 376.211 212.303 377.241 212.689C378.288 213.091 379.56 213.293 381.057 213.293C383.295 213.293 385.138 212.745 386.587 211.651C388.052 210.572 388.784 208.761 388.784 206.217V199.432H388.349C387.899 200.462 387.223 201.436 386.321 202.354C385.42 203.271 384.26 204.02 382.844 204.599C381.427 205.179 379.737 205.469 377.773 205.469C374.988 205.469 372.452 204.825 370.166 203.537C367.896 202.233 366.085 200.245 364.733 197.572C363.397 194.884 362.729 191.487 362.729 187.382C362.729 183.18 363.413 179.671 364.781 176.854C366.15 174.036 367.969 171.928 370.239 170.527C372.525 169.126 375.028 168.426 377.749 168.426C379.825 168.426 381.564 168.78 382.964 169.489C384.365 170.181 385.492 171.05 386.345 172.097C387.214 173.127 387.883 174.141 388.349 175.139H388.736V168.909H398.95V206.362C398.95 209.518 398.178 212.158 396.632 214.283C395.087 216.408 392.946 218.001 390.209 219.064C387.488 220.143 384.357 220.682 380.815 220.682ZM381.033 197.741C382.691 197.741 384.091 197.331 385.234 196.51C386.393 195.673 387.279 194.482 387.891 192.936C388.518 191.375 388.832 189.507 388.832 187.334C388.832 185.161 388.527 183.277 387.915 181.683C387.303 180.073 386.418 178.826 385.259 177.94C384.099 177.055 382.691 176.612 381.033 176.612C379.342 176.612 377.918 177.071 376.759 177.989C375.599 178.89 374.722 180.146 374.126 181.756C373.531 183.366 373.233 185.225 373.233 187.334C373.233 189.475 373.531 191.326 374.126 192.888C374.738 194.433 375.616 195.633 376.759 196.486C377.918 197.323 379.342 197.741 381.033 197.741ZM407.136 206V168.909H417.423V206H407.136ZM412.304 164.128C410.775 164.128 409.463 163.621 408.368 162.607C407.289 161.576 406.75 160.345 406.75 158.912C406.75 157.495 407.289 156.28 408.368 155.266C409.463 154.235 410.775 153.72 412.304 153.72C413.833 153.72 415.137 154.235 416.216 155.266C417.311 156.28 417.858 157.495 417.858 158.912C417.858 160.345 417.311 161.576 416.216 162.607C415.137 163.621 413.833 164.128 412.304 164.128ZM445.392 168.909V176.636H423.056V168.909H445.392ZM428.127 160.023H438.414V194.602C438.414 195.552 438.559 196.293 438.848 196.824C439.138 197.339 439.541 197.701 440.056 197.911C440.587 198.12 441.199 198.224 441.891 198.224C442.374 198.224 442.857 198.184 443.34 198.104C443.823 198.007 444.193 197.935 444.451 197.886L446.069 205.541C445.553 205.702 444.829 205.887 443.895 206.097C442.962 206.322 441.827 206.459 440.49 206.507C438.011 206.604 435.838 206.274 433.971 205.517C432.119 204.76 430.678 203.585 429.648 201.991C428.618 200.398 428.111 198.385 428.127 195.955V160.023ZM462.67 206.7C460.304 206.7 458.195 206.29 456.343 205.469C454.492 204.632 453.027 203.4 451.949 201.774C450.886 200.132 450.355 198.088 450.355 195.641C450.355 193.58 450.733 191.849 451.49 190.449C452.246 189.048 453.277 187.921 454.581 187.068C455.885 186.215 457.366 185.571 459.024 185.136C460.698 184.702 462.453 184.396 464.288 184.219C466.445 183.993 468.184 183.784 469.504 183.591C470.824 183.382 471.782 183.076 472.377 182.673C472.973 182.271 473.271 181.675 473.271 180.886V180.741C473.271 179.212 472.788 178.029 471.822 177.192C470.872 176.355 469.52 175.936 467.765 175.936C465.914 175.936 464.441 176.347 463.346 177.168C462.252 177.973 461.527 178.987 461.173 180.21L451.659 179.438C452.142 177.184 453.092 175.236 454.508 173.594C455.925 171.936 457.752 170.664 459.99 169.778C462.243 168.877 464.851 168.426 467.814 168.426C469.874 168.426 471.846 168.668 473.73 169.151C475.629 169.634 477.312 170.382 478.777 171.396C480.258 172.411 481.425 173.714 482.278 175.308C483.131 176.886 483.558 178.777 483.558 180.983V206H473.802V200.857H473.512C472.917 202.016 472.12 203.038 471.122 203.923C470.124 204.793 468.924 205.477 467.524 205.976C466.123 206.459 464.505 206.7 462.67 206.7ZM465.616 199.601C467.129 199.601 468.466 199.303 469.625 198.707C470.784 198.096 471.693 197.275 472.353 196.244C473.013 195.214 473.343 194.047 473.343 192.743V188.807C473.021 189.016 472.579 189.209 472.015 189.386C471.468 189.547 470.848 189.7 470.156 189.845C469.464 189.974 468.771 190.095 468.079 190.207C467.387 190.304 466.759 190.393 466.196 190.473C464.988 190.65 463.934 190.932 463.032 191.318C462.131 191.705 461.431 192.228 460.931 192.888C460.432 193.532 460.183 194.337 460.183 195.303C460.183 196.703 460.69 197.774 461.704 198.514C462.734 199.239 464.038 199.601 465.616 199.601ZM501.826 156.545V206H491.539V156.545H501.826ZM510.066 206V168.909H520.353V206H510.066ZM515.234 164.128C513.704 164.128 512.392 163.621 511.298 162.607C510.219 161.576 509.68 160.345 509.68 158.912C509.68 157.495 510.219 156.28 511.298 155.266C512.392 154.235 513.704 153.72 515.234 153.72C516.763 153.72 518.067 154.235 519.146 155.266C520.24 156.28 520.788 157.495 520.788 158.912C520.788 160.345 520.24 161.576 519.146 162.607C518.067 163.621 516.763 164.128 515.234 164.128ZM559.454 179.486L550.037 180.065C549.876 179.26 549.529 178.536 548.998 177.892C548.467 177.232 547.767 176.709 546.897 176.322C546.044 175.92 545.022 175.719 543.831 175.719C542.237 175.719 540.893 176.057 539.798 176.733C538.703 177.393 538.156 178.278 538.156 179.389C538.156 180.275 538.51 181.023 539.218 181.635C539.927 182.247 541.142 182.738 542.865 183.108L549.578 184.46C553.184 185.201 555.872 186.392 557.643 188.034C559.414 189.676 560.299 191.833 560.299 194.506C560.299 196.937 559.583 199.07 558.15 200.905C556.734 202.74 554.786 204.173 552.306 205.203C549.843 206.217 547.002 206.724 543.782 206.724C538.872 206.724 534.96 205.702 532.047 203.658C529.149 201.597 527.45 198.796 526.951 195.254L537.069 194.723C537.375 196.22 538.116 197.363 539.291 198.152C540.466 198.925 541.971 199.311 543.806 199.311C545.609 199.311 547.058 198.965 548.153 198.273C549.264 197.564 549.827 196.655 549.843 195.544C549.827 194.61 549.433 193.846 548.66 193.25C547.887 192.638 546.696 192.171 545.086 191.849L538.663 190.57C535.041 189.845 532.344 188.589 530.574 186.803C528.819 185.016 527.941 182.738 527.941 179.969C527.941 177.586 528.585 175.534 529.873 173.811C531.177 172.089 533.004 170.76 535.355 169.827C537.721 168.893 540.49 168.426 543.662 168.426C548.346 168.426 552.033 169.416 554.721 171.396C557.426 173.376 559.003 176.073 559.454 179.486ZM577.354 206.7C574.987 206.7 572.878 206.29 571.027 205.469C569.176 204.632 567.711 203.4 566.632 201.774C565.57 200.132 565.038 198.088 565.038 195.641C565.038 193.58 565.417 191.849 566.173 190.449C566.93 189.048 567.96 187.921 569.264 187.068C570.568 186.215 572.049 185.571 573.707 185.136C575.382 184.702 577.136 184.396 578.972 184.219C581.129 183.993 582.867 183.784 584.188 183.591C585.508 183.382 586.465 183.076 587.061 182.673C587.657 182.271 587.955 181.675 587.955 180.886V180.741C587.955 179.212 587.472 178.029 586.506 177.192C585.556 176.355 584.204 175.936 582.449 175.936C580.598 175.936 579.125 176.347 578.03 177.168C576.935 177.973 576.211 178.987 575.857 180.21L566.342 179.438C566.825 177.184 567.775 175.236 569.192 173.594C570.608 171.936 572.436 170.664 574.673 169.778C576.927 168.877 579.535 168.426 582.497 168.426C584.558 168.426 586.53 168.668 588.413 169.151C590.313 169.634 591.995 170.382 593.46 171.396C594.941 172.411 596.108 173.714 596.962 175.308C597.815 176.886 598.241 178.777 598.241 180.983V206H588.486V200.857H588.196C587.6 202.016 586.804 203.038 585.805 203.923C584.807 204.793 583.608 205.477 582.207 205.976C580.807 206.459 579.189 206.7 577.354 206.7ZM580.3 199.601C581.813 199.601 583.149 199.303 584.308 198.707C585.467 198.096 586.377 197.275 587.037 196.244C587.697 195.214 588.027 194.047 588.027 192.743V188.807C587.705 189.016 587.262 189.209 586.699 189.386C586.152 189.547 585.532 189.7 584.839 189.845C584.147 189.974 583.455 190.095 582.763 190.207C582.071 190.304 581.443 190.393 580.879 190.473C579.672 190.65 578.617 190.932 577.716 191.318C576.814 191.705 576.114 192.228 575.615 192.888C575.116 193.532 574.866 194.337 574.866 195.303C574.866 196.703 575.374 197.774 576.388 198.514C577.418 199.239 578.722 199.601 580.3 199.601ZM637.083 179.486L627.665 180.065C627.504 179.26 627.158 178.536 626.627 177.892C626.096 177.232 625.396 176.709 624.526 176.322C623.673 175.92 622.651 175.719 621.46 175.719C619.866 175.719 618.522 176.057 617.427 176.733C616.332 177.393 615.785 178.278 615.785 179.389C615.785 180.275 616.139 181.023 616.847 181.635C617.556 182.247 618.771 182.738 620.494 183.108L627.207 184.46C630.813 185.201 633.501 186.392 635.272 188.034C637.043 189.676 637.928 191.833 637.928 194.506C637.928 196.937 637.212 199.07 635.779 200.905C634.362 202.74 632.415 204.173 629.935 205.203C627.472 206.217 624.631 206.724 621.411 206.724C616.501 206.724 612.589 205.702 609.675 203.658C606.778 201.597 605.079 198.796 604.58 195.254L614.698 194.723C615.004 196.22 615.745 197.363 616.92 198.152C618.095 198.925 619.6 199.311 621.435 199.311C623.238 199.311 624.687 198.965 625.782 198.273C626.893 197.564 627.456 196.655 627.472 195.544C627.456 194.61 627.062 193.846 626.289 193.25C625.516 192.638 624.325 192.171 622.715 191.849L616.292 190.57C612.67 189.845 609.973 188.589 608.202 186.803C606.448 185.016 605.57 182.738 605.57 179.969C605.57 177.586 606.214 175.534 607.502 173.811C608.806 172.089 610.633 170.76 612.984 169.827C615.35 168.893 618.119 168.426 621.29 168.426C625.975 168.426 629.662 169.416 632.35 171.396C635.055 173.376 636.632 176.073 637.083 179.486ZM644.406 206V168.909H654.693V206H644.406ZM649.574 164.128C648.044 164.128 646.732 163.621 645.637 162.607C644.559 161.576 644.02 160.345 644.02 158.912C644.02 157.495 644.559 156.28 645.637 155.266C646.732 154.235 648.044 153.72 649.574 153.72C651.103 153.72 652.407 154.235 653.485 155.266C654.58 156.28 655.127 157.495 655.127 158.912C655.127 160.345 654.58 161.576 653.485 162.607C652.407 163.621 651.103 164.128 649.574 164.128ZM678.865 206V156.545H698.666C702.304 156.545 705.339 157.085 707.77 158.163C710.2 159.242 712.028 160.739 713.251 162.655C714.475 164.554 715.086 166.744 715.086 169.223C715.086 171.155 714.7 172.853 713.927 174.318C713.154 175.767 712.092 176.958 710.74 177.892C709.404 178.81 707.874 179.462 706.152 179.848V180.331C708.035 180.411 709.798 180.943 711.44 181.925C713.098 182.907 714.442 184.283 715.473 186.054C716.503 187.809 717.018 189.902 717.018 192.332C717.018 194.956 716.366 197.299 715.062 199.359C713.774 201.404 711.867 203.022 709.339 204.213C706.812 205.404 703.697 206 699.994 206H678.865ZM689.321 197.452H697.845C700.759 197.452 702.884 196.896 704.22 195.786C705.556 194.659 706.224 193.161 706.224 191.294C706.224 189.926 705.894 188.718 705.234 187.672C704.574 186.625 703.632 185.804 702.409 185.209C701.201 184.613 699.761 184.315 698.086 184.315H689.321V197.452ZM689.321 177.24H697.072C698.505 177.24 699.777 176.991 700.887 176.491C702.014 175.976 702.9 175.252 703.544 174.318C704.204 173.384 704.534 172.266 704.534 170.962C704.534 169.175 703.898 167.734 702.626 166.639C701.37 165.545 699.583 164.997 697.265 164.997H689.321V177.24ZM723.629 206V168.909H733.915V206H723.629ZM728.796 164.128C727.267 164.128 725.955 163.621 724.86 162.607C723.781 161.576 723.242 160.345 723.242 158.912C723.242 157.495 723.781 156.28 724.86 155.266C725.955 154.235 727.267 153.72 728.796 153.72C730.326 153.72 731.629 154.235 732.708 155.266C733.803 156.28 734.35 157.495 734.35 158.912C734.35 160.345 733.803 161.576 732.708 162.607C731.629 163.621 730.326 164.128 728.796 164.128ZM773.017 179.486L763.599 180.065C763.438 179.26 763.092 178.536 762.561 177.892C762.029 177.232 761.329 176.709 760.46 176.322C759.607 175.92 758.584 175.719 757.393 175.719C755.799 175.719 754.455 176.057 753.36 176.733C752.266 177.393 751.718 178.278 751.718 179.389C751.718 180.275 752.073 181.023 752.781 181.635C753.489 182.247 754.705 182.738 756.427 183.108L763.14 184.46C766.746 185.201 769.435 186.392 771.206 188.034C772.976 189.676 773.862 191.833 773.862 194.506C773.862 196.937 773.145 199.07 771.713 200.905C770.296 202.74 768.348 204.173 765.869 205.203C763.406 206.217 760.565 206.724 757.345 206.724C752.435 206.724 748.523 205.702 745.609 203.658C742.711 201.597 741.013 198.796 740.514 195.254L750.632 194.723C750.938 196.22 751.678 197.363 752.853 198.152C754.029 198.925 755.534 199.311 757.369 199.311C759.172 199.311 760.621 198.965 761.716 198.273C762.826 197.564 763.39 196.655 763.406 195.544C763.39 194.61 762.995 193.846 762.223 193.25C761.45 192.638 760.259 192.171 758.649 191.849L752.225 190.57C748.603 189.845 745.907 188.589 744.136 186.803C742.381 185.016 741.504 182.738 741.504 179.969C741.504 177.586 742.148 175.534 743.436 173.811C744.74 172.089 746.567 170.76 748.917 169.827C751.284 168.893 754.053 168.426 757.224 168.426C761.909 168.426 765.595 169.416 768.284 171.396C770.988 173.376 772.566 176.073 773.017 179.486ZM790.626 184.557V206H780.339V168.909H790.143V175.453H790.578C791.399 173.296 792.776 171.589 794.707 170.334C796.639 169.062 798.982 168.426 801.734 168.426C804.31 168.426 806.556 168.99 808.472 170.116C810.387 171.243 811.876 172.853 812.939 174.946C814.001 177.023 814.533 179.502 814.533 182.384V206H804.246V184.219C804.262 181.949 803.682 180.178 802.507 178.906C801.332 177.618 799.714 176.974 797.653 176.974C796.269 176.974 795.045 177.272 793.983 177.868C792.937 178.464 792.116 179.333 791.52 180.476C790.94 181.603 790.643 182.963 790.626 184.557ZM822.64 206V168.909H832.927V206H822.64ZM827.808 164.128C826.279 164.128 824.967 163.621 823.872 162.607C822.793 161.576 822.254 160.345 822.254 158.912C822.254 157.495 822.793 156.28 823.872 155.266C824.967 154.235 826.279 153.72 827.808 153.72C829.337 153.72 830.641 154.235 831.72 155.266C832.815 156.28 833.362 157.495 833.362 158.912C833.362 160.345 832.815 161.576 831.72 162.607C830.641 163.621 829.337 164.128 827.808 164.128ZM872.028 179.486L862.611 180.065C862.45 179.26 862.104 178.536 861.572 177.892C861.041 177.232 860.341 176.709 859.472 176.322C858.618 175.92 857.596 175.719 856.405 175.719C854.811 175.719 853.467 176.057 852.372 176.733C851.277 177.393 850.73 178.278 850.73 179.389C850.73 180.275 851.084 181.023 851.793 181.635C852.501 182.247 853.716 182.738 855.439 183.108L862.152 184.46C865.758 185.201 868.446 186.392 870.217 188.034C871.988 189.676 872.874 191.833 872.874 194.506C872.874 196.937 872.157 199.07 870.724 200.905C869.308 202.74 867.36 204.173 864.881 205.203C862.418 206.217 859.576 206.724 856.357 206.724C851.446 206.724 847.535 205.702 844.621 203.658C841.723 201.597 840.025 198.796 839.526 195.254L849.643 194.723C849.949 196.22 850.69 197.363 851.865 198.152C853.04 198.925 854.545 199.311 856.381 199.311C858.184 199.311 859.633 198.965 860.727 198.273C861.838 197.564 862.402 196.655 862.418 195.544C862.402 194.61 862.007 193.846 861.234 193.25C860.462 192.638 859.27 192.171 857.661 191.849L851.237 190.57C847.615 189.845 844.919 188.589 843.148 186.803C841.393 185.016 840.516 182.738 840.516 179.969C840.516 177.586 841.16 175.534 842.447 173.811C843.751 172.089 845.579 170.76 847.929 169.827C850.295 168.893 853.064 168.426 856.236 168.426C860.92 168.426 864.607 169.416 867.295 171.396C870 173.376 871.578 176.073 872.028 179.486Z" fill="white"/>
<path d="M341.744 263.273C341.744 268.666 340.722 273.254 338.678 277.037C336.649 280.82 333.88 283.71 330.371 285.706C326.877 287.686 322.949 288.676 318.587 288.676C314.192 288.676 310.248 287.678 306.754 285.682C303.261 283.686 300.5 280.796 298.472 277.013C296.443 273.23 295.429 268.65 295.429 263.273C295.429 257.88 296.443 253.292 298.472 249.509C300.5 245.725 303.261 242.844 306.754 240.864C310.248 238.867 314.192 237.869 318.587 237.869C322.949 237.869 326.877 238.867 330.371 240.864C333.88 242.844 336.649 245.725 338.678 249.509C340.722 253.292 341.744 257.88 341.744 263.273ZM331.143 263.273C331.143 259.779 330.62 256.833 329.574 254.435C328.544 252.036 327.087 250.217 325.203 248.977C323.32 247.738 321.114 247.118 318.587 247.118C316.059 247.118 313.854 247.738 311.97 248.977C310.087 250.217 308.622 252.036 307.575 254.435C306.545 256.833 306.03 259.779 306.03 263.273C306.03 266.766 306.545 269.712 307.575 272.111C308.622 274.509 310.087 276.329 311.97 277.568C313.854 278.808 316.059 279.428 318.587 279.428C321.114 279.428 323.32 278.808 325.203 277.568C327.087 276.329 328.544 274.509 329.574 272.111C330.62 269.712 331.143 266.766 331.143 263.273ZM369.025 250.909V258.636H346.689V250.909H369.025ZM351.76 242.023H362.047V276.602C362.047 277.552 362.191 278.293 362.481 278.824C362.771 279.339 363.173 279.701 363.689 279.911C364.22 280.12 364.832 280.224 365.524 280.224C366.007 280.224 366.49 280.184 366.973 280.104C367.456 280.007 367.826 279.935 368.083 279.886L369.701 287.541C369.186 287.702 368.462 287.887 367.528 288.097C366.594 288.322 365.459 288.459 364.123 288.507C361.644 288.604 359.471 288.274 357.603 287.517C355.752 286.76 354.311 285.585 353.281 283.991C352.251 282.398 351.743 280.385 351.76 277.955V242.023ZM392.086 288.724C388.335 288.724 385.092 287.928 382.355 286.334C379.634 284.724 377.533 282.486 376.052 279.621C374.571 276.739 373.831 273.399 373.831 269.599C373.831 265.768 374.571 262.42 376.052 259.554C377.533 256.672 379.634 254.435 382.355 252.841C385.092 251.231 388.335 250.426 392.086 250.426C395.837 250.426 399.073 251.231 401.794 252.841C404.53 254.435 406.639 256.672 408.12 259.554C409.601 262.42 410.342 265.768 410.342 269.599C410.342 273.399 409.601 276.739 408.12 279.621C406.639 282.486 404.53 284.724 401.794 286.334C399.073 287.928 395.837 288.724 392.086 288.724ZM392.135 280.756C393.841 280.756 395.266 280.273 396.409 279.307C397.552 278.325 398.413 276.989 398.993 275.298C399.588 273.608 399.886 271.684 399.886 269.527C399.886 267.37 399.588 265.446 398.993 263.756C398.413 262.065 397.552 260.729 396.409 259.747C395.266 258.765 393.841 258.274 392.135 258.274C390.412 258.274 388.963 258.765 387.788 259.747C386.629 260.729 385.752 262.065 385.156 263.756C384.576 265.446 384.287 267.37 384.287 269.527C384.287 271.684 384.576 273.608 385.156 275.298C385.752 276.989 386.629 278.325 387.788 279.307C388.963 280.273 390.412 280.756 392.135 280.756ZM417.031 288V250.909H426.835V257.453H427.27C428.042 255.28 429.33 253.565 431.133 252.31C432.936 251.054 435.093 250.426 437.605 250.426C440.148 250.426 442.314 251.062 444.1 252.334C445.887 253.589 447.079 255.296 447.674 257.453H448.061C448.817 255.328 450.186 253.63 452.166 252.358C454.162 251.07 456.52 250.426 459.241 250.426C462.702 250.426 465.511 251.529 467.669 253.734C469.842 255.924 470.929 259.031 470.929 263.055V288H460.666V265.084C460.666 263.023 460.118 261.478 459.024 260.447C457.929 259.417 456.561 258.902 454.919 258.902C453.051 258.902 451.594 259.498 450.548 260.689C449.502 261.864 448.978 263.418 448.978 265.349V288H439.005V264.866C439.005 263.047 438.482 261.598 437.436 260.52C436.405 259.441 435.045 258.902 433.355 258.902C432.212 258.902 431.181 259.192 430.264 259.771C429.362 260.335 428.646 261.132 428.115 262.162C427.583 263.176 427.318 264.367 427.318 265.736V288H417.031ZM489.631 288.7C487.265 288.7 485.156 288.29 483.304 287.469C481.453 286.632 479.988 285.4 478.909 283.774C477.847 282.132 477.316 280.088 477.316 277.641C477.316 275.58 477.694 273.849 478.451 272.449C479.207 271.048 480.238 269.921 481.542 269.068C482.846 268.215 484.327 267.571 485.985 267.136C487.659 266.702 489.414 266.396 491.249 266.219C493.406 265.993 495.145 265.784 496.465 265.591C497.785 265.382 498.743 265.076 499.338 264.673C499.934 264.271 500.232 263.675 500.232 262.886V262.741C500.232 261.212 499.749 260.029 498.783 259.192C497.833 258.355 496.481 257.936 494.726 257.936C492.875 257.936 491.402 258.347 490.307 259.168C489.212 259.973 488.488 260.987 488.134 262.21L478.62 261.438C479.103 259.184 480.052 257.236 481.469 255.594C482.886 253.936 484.713 252.664 486.951 251.778C489.204 250.877 491.812 250.426 494.775 250.426C496.835 250.426 498.807 250.668 500.691 251.151C502.59 251.634 504.273 252.382 505.738 253.396C507.219 254.411 508.386 255.714 509.239 257.308C510.092 258.886 510.519 260.777 510.519 262.983V288H500.763V282.857H500.473C499.878 284.016 499.081 285.038 498.083 285.923C497.085 286.793 495.885 287.477 494.485 287.976C493.084 288.459 491.466 288.7 489.631 288.7ZM492.577 281.601C494.09 281.601 495.426 281.303 496.586 280.707C497.745 280.096 498.654 279.275 499.314 278.244C499.974 277.214 500.304 276.047 500.304 274.743V270.807C499.982 271.016 499.54 271.209 498.976 271.386C498.429 271.547 497.809 271.7 497.117 271.845C496.425 271.974 495.732 272.095 495.04 272.207C494.348 272.304 493.72 272.393 493.157 272.473C491.949 272.65 490.895 272.932 489.993 273.318C489.092 273.705 488.391 274.228 487.892 274.888C487.393 275.532 487.144 276.337 487.144 277.303C487.144 278.703 487.651 279.774 488.665 280.514C489.695 281.239 490.999 281.601 492.577 281.601ZM538.228 250.909V258.636H515.892V250.909H538.228ZM520.963 242.023H531.25V276.602C531.25 277.552 531.395 278.293 531.684 278.824C531.974 279.339 532.377 279.701 532.892 279.911C533.423 280.12 534.035 280.224 534.727 280.224C535.21 280.224 535.693 280.184 536.176 280.104C536.659 280.007 537.029 279.935 537.287 279.886L538.904 287.541C538.389 287.702 537.665 287.887 536.731 288.097C535.797 288.322 534.663 288.459 533.326 288.507C530.847 288.604 528.674 288.274 526.806 287.517C524.955 286.76 523.514 285.585 522.484 283.991C521.454 282.398 520.947 280.385 520.963 277.955V242.023ZM544.929 288V250.909H555.216V288H544.929ZM550.097 246.128C548.568 246.128 547.256 245.621 546.161 244.607C545.082 243.576 544.543 242.345 544.543 240.912C544.543 239.495 545.082 238.28 546.161 237.266C547.256 236.235 548.568 235.72 550.097 235.72C551.626 235.72 552.93 236.235 554.009 237.266C555.104 238.28 555.651 239.495 555.651 240.912C555.651 242.345 555.104 243.576 554.009 244.607C552.93 245.621 551.626 246.128 550.097 246.128ZM594.317 261.486L584.9 262.065C584.739 261.26 584.393 260.536 583.862 259.892C583.33 259.232 582.63 258.709 581.761 258.322C580.907 257.92 579.885 257.719 578.694 257.719C577.1 257.719 575.756 258.057 574.661 258.733C573.567 259.393 573.019 260.278 573.019 261.389C573.019 262.275 573.373 263.023 574.082 263.635C574.79 264.247 576.005 264.738 577.728 265.108L584.441 266.46C588.047 267.201 590.736 268.392 592.506 270.034C594.277 271.676 595.163 273.833 595.163 276.506C595.163 278.937 594.446 281.07 593.013 282.905C591.597 284.74 589.649 286.173 587.17 287.203C584.707 288.217 581.865 288.724 578.646 288.724C573.736 288.724 569.824 287.702 566.91 285.658C564.012 283.597 562.314 280.796 561.815 277.254L571.933 276.723C572.238 278.22 572.979 279.363 574.154 280.152C575.329 280.925 576.835 281.311 578.67 281.311C580.473 281.311 581.922 280.965 583.016 280.273C584.127 279.564 584.691 278.655 584.707 277.544C584.691 276.61 584.296 275.846 583.523 275.25C582.751 274.638 581.559 274.171 579.95 273.849L573.526 272.57C569.904 271.845 567.208 270.589 565.437 268.803C563.682 267.016 562.805 264.738 562.805 261.969C562.805 259.586 563.449 257.534 564.737 255.811C566.04 254.089 567.868 252.76 570.218 251.827C572.585 250.893 575.353 250.426 578.525 250.426C583.21 250.426 586.896 251.416 589.585 253.396C592.289 255.376 593.867 258.073 594.317 261.486ZM632.543 288.724C629.13 288.724 626.184 288.113 623.705 286.889C621.226 285.666 619.318 284.008 617.982 281.915C616.662 279.806 616.002 277.455 616.002 274.864C616.002 272.932 616.388 271.217 617.161 269.72C617.934 268.223 619.013 266.847 620.397 265.591C621.781 264.319 623.391 263.055 625.227 261.8L634.813 255.497C636.053 254.708 636.962 253.879 637.542 253.01C638.121 252.125 638.411 251.167 638.411 250.136C638.411 249.154 638.017 248.245 637.228 247.408C636.439 246.571 635.32 246.16 633.871 246.176C632.906 246.176 632.068 246.393 631.36 246.828C630.652 247.247 630.096 247.802 629.694 248.494C629.308 249.17 629.114 249.927 629.114 250.764C629.114 251.795 629.404 252.841 629.984 253.903C630.563 254.966 631.336 256.093 632.302 257.284C633.268 258.459 634.322 259.731 635.465 261.099L658.913 288H648.191L628.631 266.219C627.344 264.754 626.056 263.224 624.768 261.631C623.496 260.021 622.433 258.314 621.58 256.511C620.727 254.692 620.3 252.72 620.3 250.595C620.3 248.196 620.856 246.039 621.967 244.124C623.094 242.208 624.671 240.695 626.7 239.584C628.728 238.457 631.094 237.893 633.799 237.893C636.439 237.893 638.717 238.433 640.633 239.511C642.565 240.574 644.046 241.991 645.076 243.761C646.122 245.516 646.646 247.448 646.646 249.557C646.646 251.891 646.066 254.008 644.907 255.908C643.764 257.791 642.154 259.482 640.077 260.979L629.984 268.247C628.615 269.245 627.601 270.268 626.941 271.314C626.297 272.344 625.975 273.334 625.975 274.284C625.975 275.459 626.265 276.514 626.844 277.447C627.424 278.381 628.245 279.122 629.308 279.669C630.37 280.2 631.618 280.466 633.05 280.466C634.789 280.466 636.504 280.071 638.194 279.283C639.9 278.478 641.446 277.343 642.83 275.878C644.231 274.397 645.35 272.642 646.187 270.614C647.024 268.585 647.442 266.339 647.442 263.876H655.967C655.967 266.903 655.637 269.632 654.977 272.062C654.317 274.477 653.399 276.586 652.224 278.389C651.049 280.176 649.704 281.641 648.191 282.784C647.708 283.09 647.241 283.38 646.79 283.653C646.34 283.927 645.873 284.217 645.39 284.523C643.555 286.004 641.502 287.074 639.232 287.734C636.978 288.394 634.749 288.724 632.543 288.724ZM677.247 247.166V238.545H717.863V247.166H702.723V288H692.387V247.166H677.247ZM735.884 288.724C732.068 288.724 728.784 287.952 726.031 286.406C723.295 284.845 721.186 282.639 719.705 279.79C718.223 276.924 717.483 273.536 717.483 269.624C717.483 265.808 718.223 262.46 719.705 259.578C721.186 256.696 723.27 254.451 725.959 252.841C728.663 251.231 731.835 250.426 735.473 250.426C737.92 250.426 740.198 250.821 742.307 251.609C744.432 252.382 746.283 253.549 747.861 255.111C749.455 256.672 750.694 258.636 751.58 261.003C752.465 263.353 752.908 266.106 752.908 269.261V272.087H721.588V265.712H743.224C743.224 264.231 742.902 262.919 742.259 261.776C741.615 260.633 740.721 259.739 739.578 259.095C738.451 258.435 737.139 258.105 735.642 258.105C734.08 258.105 732.696 258.467 731.489 259.192C730.297 259.9 729.364 260.858 728.688 262.065C728.011 263.257 727.665 264.585 727.649 266.05V272.111C727.649 273.946 727.987 275.532 728.663 276.868C729.356 278.204 730.33 279.234 731.585 279.959C732.841 280.683 734.33 281.045 736.053 281.045C737.196 281.045 738.242 280.884 739.192 280.562C740.142 280.241 740.955 279.758 741.631 279.114C742.307 278.47 742.822 277.681 743.176 276.747L752.69 277.375C752.207 279.661 751.217 281.657 749.72 283.364C748.239 285.054 746.323 286.374 743.973 287.324C741.639 288.258 738.942 288.724 735.884 288.724ZM759.621 288V250.909H769.594V257.381H769.98C770.656 255.079 771.791 253.34 773.385 252.165C774.979 250.973 776.814 250.378 778.891 250.378C779.406 250.378 779.961 250.41 780.557 250.474C781.152 250.539 781.676 250.627 782.126 250.74V259.868C781.643 259.723 780.975 259.594 780.122 259.482C779.269 259.369 778.488 259.312 777.78 259.312C776.267 259.312 774.914 259.643 773.723 260.303C772.548 260.946 771.614 261.848 770.922 263.007C770.246 264.166 769.908 265.502 769.908 267.016V288H759.621ZM787.445 288V250.909H797.732V288H787.445ZM792.613 246.128C791.083 246.128 789.771 245.621 788.676 244.607C787.598 243.576 787.059 242.345 787.059 240.912C787.059 239.495 787.598 238.28 788.676 237.266C789.771 236.235 791.083 235.72 792.613 235.72C794.142 235.72 795.446 236.235 796.525 237.266C797.619 238.28 798.167 239.495 798.167 240.912C798.167 242.345 797.619 243.576 796.525 244.607C795.446 245.621 794.142 246.128 792.613 246.128ZM816.259 266.557V288H805.972V250.909H815.776V257.453H816.211C817.032 255.296 818.408 253.589 820.34 252.334C822.272 251.062 824.614 250.426 827.367 250.426C829.943 250.426 832.189 250.99 834.104 252.116C836.02 253.243 837.509 254.853 838.572 256.946C839.634 259.023 840.165 261.502 840.165 264.384V288H829.879V266.219C829.895 263.949 829.315 262.178 828.14 260.906C826.965 259.618 825.347 258.974 823.286 258.974C821.902 258.974 820.678 259.272 819.616 259.868C818.569 260.464 817.748 261.333 817.153 262.476C816.573 263.603 816.275 264.963 816.259 266.557ZM868.002 250.909V258.636H845.665V250.909H868.002ZM850.736 242.023H861.023V276.602C861.023 277.552 861.168 278.293 861.458 278.824C861.748 279.339 862.15 279.701 862.665 279.911C863.196 280.12 863.808 280.224 864.5 280.224C864.983 280.224 865.466 280.184 865.949 280.104C866.432 280.007 866.802 279.935 867.06 279.886L868.678 287.541C868.163 287.702 867.438 287.887 866.505 288.097C865.571 288.322 864.436 288.459 863.1 288.507C860.621 288.604 858.447 288.274 856.58 287.517C854.729 286.76 853.288 285.585 852.257 283.991C851.227 282.398 850.72 280.385 850.736 277.955V242.023ZM891.208 288.724C887.392 288.724 884.108 287.952 881.355 286.406C878.619 284.845 876.51 282.639 875.029 279.79C873.548 276.924 872.807 273.536 872.807 269.624C872.807 265.808 873.548 262.46 875.029 259.578C876.51 256.696 878.595 254.451 881.283 252.841C883.988 251.231 887.159 250.426 890.797 250.426C893.244 250.426 895.522 250.821 897.631 251.609C899.756 252.382 901.607 253.549 903.185 255.111C904.779 256.672 906.018 258.636 906.904 261.003C907.789 263.353 908.232 266.106 908.232 269.261V272.087H876.912V265.712H898.549C898.549 264.231 898.227 262.919 897.583 261.776C896.939 260.633 896.045 259.739 894.902 259.095C893.775 258.435 892.463 258.105 890.966 258.105C889.405 258.105 888.02 258.467 886.813 259.192C885.622 259.9 884.688 260.858 884.012 262.065C883.336 263.257 882.989 264.585 882.973 266.05V272.111C882.973 273.946 883.311 275.532 883.988 276.868C884.68 278.204 885.654 279.234 886.909 279.959C888.165 280.683 889.654 281.045 891.377 281.045C892.52 281.045 893.566 280.884 894.516 280.562C895.466 280.241 896.279 279.758 896.955 279.114C897.631 278.47 898.146 277.681 898.5 276.747L908.015 277.375C907.532 279.661 906.542 281.657 905.044 283.364C903.563 285.054 901.648 286.374 899.297 287.324C896.963 288.258 894.266 288.724 891.208 288.724ZM931.655 302.682C928.323 302.682 925.465 302.223 923.083 301.305C920.716 300.404 918.833 299.172 917.432 297.611C916.032 296.049 915.122 294.295 914.703 292.347L924.218 291.067C924.507 291.807 924.966 292.5 925.594 293.143C926.222 293.787 927.051 294.303 928.081 294.689C929.128 295.091 930.4 295.293 931.897 295.293C934.134 295.293 935.978 294.745 937.426 293.651C938.891 292.572 939.624 290.761 939.624 288.217V281.432H939.189C938.739 282.462 938.062 283.436 937.161 284.354C936.259 285.271 935.1 286.02 933.684 286.599C932.267 287.179 930.577 287.469 928.613 287.469C925.828 287.469 923.292 286.825 921.006 285.537C918.736 284.233 916.925 282.245 915.573 279.572C914.237 276.884 913.569 273.487 913.569 269.382C913.569 265.18 914.253 261.671 915.621 258.854C916.989 256.036 918.809 253.928 921.078 252.527C923.364 251.126 925.868 250.426 928.588 250.426C930.665 250.426 932.404 250.78 933.804 251.489C935.205 252.181 936.332 253.05 937.185 254.097C938.054 255.127 938.722 256.141 939.189 257.139H939.576V250.909H949.79V288.362C949.79 291.518 949.017 294.158 947.472 296.283C945.926 298.408 943.785 300.001 941.049 301.064C938.328 302.143 935.197 302.682 931.655 302.682ZM931.873 279.741C933.531 279.741 934.931 279.331 936.074 278.51C937.233 277.673 938.119 276.482 938.73 274.936C939.358 273.375 939.672 271.507 939.672 269.334C939.672 267.161 939.366 265.277 938.755 263.683C938.143 262.073 937.257 260.826 936.098 259.94C934.939 259.055 933.531 258.612 931.873 258.612C930.182 258.612 928.757 259.071 927.598 259.989C926.439 260.89 925.562 262.146 924.966 263.756C924.371 265.366 924.073 267.225 924.073 269.334C924.073 271.475 924.371 273.326 924.966 274.888C925.578 276.433 926.455 277.633 927.598 278.486C928.757 279.323 930.182 279.741 931.873 279.741ZM957.976 288V250.909H967.949V257.381H968.336C969.012 255.079 970.147 253.34 971.74 252.165C973.334 250.973 975.169 250.378 977.246 250.378C977.761 250.378 978.317 250.41 978.912 250.474C979.508 250.539 980.031 250.627 980.482 250.74V259.868C979.999 259.723 979.331 259.594 978.478 259.482C977.624 259.369 976.844 259.312 976.135 259.312C974.622 259.312 973.27 259.643 972.078 260.303C970.903 260.946 969.97 261.848 969.277 263.007C968.601 264.166 968.263 265.502 968.263 267.016V288H957.976ZM995.315 288.7C992.948 288.7 990.839 288.29 988.988 287.469C987.137 286.632 985.672 285.4 984.593 283.774C983.531 282.132 982.999 280.088 982.999 277.641C982.999 275.58 983.378 273.849 984.134 272.449C984.891 271.048 985.921 269.921 987.225 269.068C988.529 268.215 990.01 267.571 991.668 267.136C993.343 266.702 995.097 266.396 996.933 266.219C999.09 265.993 1000.83 265.784 1002.15 265.591C1003.47 265.382 1004.43 265.076 1005.02 264.673C1005.62 264.271 1005.92 263.675 1005.92 262.886V262.741C1005.92 261.212 1005.43 260.029 1004.47 259.192C1003.52 258.355 1002.16 257.936 1000.41 257.936C998.558 257.936 997.085 258.347 995.991 259.168C994.896 259.973 994.172 260.987 993.817 262.21L984.303 261.438C984.786 259.184 985.736 257.236 987.153 255.594C988.569 253.936 990.397 252.664 992.634 251.778C994.888 250.877 997.496 250.426 1000.46 250.426C1002.52 250.426 1004.49 250.668 1006.37 251.151C1008.27 251.634 1009.96 252.382 1011.42 253.396C1012.9 254.411 1014.07 255.714 1014.92 257.308C1015.78 258.886 1016.2 260.777 1016.2 262.983V288H1006.45V282.857H1006.16C1005.56 284.016 1004.76 285.038 1003.77 285.923C1002.77 286.793 1001.57 287.477 1000.17 287.976C998.768 288.459 997.15 288.7 995.315 288.7ZM998.261 281.601C999.774 281.601 1001.11 281.303 1002.27 280.707C1003.43 280.096 1004.34 279.275 1005 278.244C1005.66 277.214 1005.99 276.047 1005.99 274.743V270.807C1005.67 271.016 1005.22 271.209 1004.66 271.386C1004.11 271.547 1003.49 271.7 1002.8 271.845C1002.11 271.974 1001.42 272.095 1000.72 272.207C1000.03 272.304 999.404 272.393 998.84 272.473C997.633 272.65 996.578 272.932 995.677 273.318C994.775 273.705 994.075 274.228 993.576 274.888C993.077 275.532 992.827 276.337 992.827 277.303C992.827 278.703 993.335 279.774 994.349 280.514C995.379 281.239 996.683 281.601 998.261 281.601ZM1055.04 261.486L1045.63 262.065C1045.47 261.26 1045.12 260.536 1044.59 259.892C1044.06 259.232 1043.36 258.709 1042.49 258.322C1041.63 257.92 1040.61 257.719 1039.42 257.719C1037.83 257.719 1036.48 258.057 1035.39 258.733C1034.29 259.393 1033.75 260.278 1033.75 261.389C1033.75 262.275 1034.1 263.023 1034.81 263.635C1035.52 264.247 1036.73 264.738 1038.45 265.108L1045.17 266.46C1048.77 267.201 1051.46 268.392 1053.23 270.034C1055 271.676 1055.89 273.833 1055.89 276.506C1055.89 278.937 1055.17 281.07 1053.74 282.905C1052.32 284.74 1050.38 286.173 1047.9 287.203C1045.43 288.217 1042.59 288.724 1039.37 288.724C1034.46 288.724 1030.55 287.702 1027.64 285.658C1024.74 283.597 1023.04 280.796 1022.54 277.254L1032.66 276.723C1032.96 278.22 1033.71 279.363 1034.88 280.152C1036.06 280.925 1037.56 281.311 1039.4 281.311C1041.2 281.311 1042.65 280.965 1043.74 280.273C1044.85 279.564 1045.42 278.655 1045.43 277.544C1045.42 276.61 1045.02 275.846 1044.25 275.25C1043.48 274.638 1042.29 274.171 1040.68 273.849L1034.25 272.57C1030.63 271.845 1027.93 270.589 1026.16 268.803C1024.41 267.016 1023.53 264.738 1023.53 261.969C1023.53 259.586 1024.18 257.534 1025.46 255.811C1026.77 254.089 1028.59 252.76 1030.94 251.827C1033.31 250.893 1036.08 250.426 1039.25 250.426C1043.94 250.426 1047.62 251.416 1050.31 253.396C1053.02 255.376 1054.59 258.073 1055.04 261.486ZM1062.37 288V250.909H1072.65V288H1062.37ZM1067.53 246.128C1066.01 246.128 1064.69 245.621 1063.6 244.607C1062.52 243.576 1061.98 242.345 1061.98 240.912C1061.98 239.495 1062.52 238.28 1063.6 237.266C1064.69 236.235 1066.01 235.72 1067.53 235.72C1069.06 235.72 1070.37 236.235 1071.45 237.266C1072.54 238.28 1073.09 239.495 1073.09 240.912C1073.09 242.345 1072.54 243.576 1071.45 244.607C1070.37 245.621 1069.06 246.128 1067.53 246.128Z" fill="white"/>
<path d="M298.165 353L292.597 332.636H295.102L299.358 349.222H299.557L303.892 332.636H306.676L311.011 349.222H311.21L315.466 332.636H317.972L312.403 353H309.858L305.364 336.773H305.205L300.71 353H298.165ZM325.707 353.318C324.236 353.318 322.966 352.993 321.899 352.344C320.839 351.688 320.02 350.773 319.443 349.599C318.873 348.42 318.588 347.047 318.588 345.483C318.588 343.919 318.873 342.54 319.443 341.347C320.02 340.147 320.822 339.212 321.849 338.543C322.884 337.866 324.09 337.528 325.469 337.528C326.264 337.528 327.05 337.661 327.825 337.926C328.601 338.191 329.307 338.622 329.943 339.219C330.58 339.809 331.087 340.591 331.464 341.565C331.842 342.54 332.031 343.74 332.031 345.165V346.159H320.259V344.131H329.645C329.645 343.269 329.473 342.5 329.128 341.824C328.79 341.148 328.306 340.614 327.676 340.223C327.053 339.832 326.317 339.636 325.469 339.636C324.534 339.636 323.725 339.868 323.043 340.332C322.366 340.79 321.846 341.386 321.482 342.122C321.117 342.858 320.935 343.647 320.935 344.489V345.841C320.935 346.994 321.134 347.972 321.531 348.774C321.936 349.57 322.496 350.176 323.212 350.594C323.928 351.005 324.759 351.21 325.707 351.21C326.324 351.21 326.881 351.124 327.378 350.952C327.882 350.773 328.316 350.508 328.68 350.156C329.045 349.798 329.327 349.354 329.526 348.824L331.793 349.46C331.554 350.229 331.153 350.905 330.589 351.489C330.026 352.065 329.33 352.516 328.501 352.841C327.673 353.159 326.741 353.318 325.707 353.318ZM335.919 353V332.636H338.266V340.153H338.464C338.637 339.888 338.875 339.55 339.18 339.139C339.492 338.722 339.936 338.35 340.513 338.026C341.096 337.694 341.885 337.528 342.879 337.528C344.165 337.528 345.299 337.85 346.28 338.493C347.261 339.136 348.027 340.047 348.577 341.227C349.127 342.407 349.402 343.799 349.402 345.403C349.402 347.021 349.127 348.423 348.577 349.609C348.027 350.789 347.264 351.704 346.29 352.354C345.315 352.997 344.192 353.318 342.919 353.318C341.938 353.318 341.152 353.156 340.562 352.831C339.973 352.5 339.518 352.125 339.2 351.707C338.882 351.283 338.637 350.932 338.464 350.653H338.186V353H335.919ZM338.226 345.364C338.226 346.517 338.395 347.535 338.733 348.416C339.071 349.291 339.565 349.977 340.214 350.474C340.864 350.965 341.66 351.21 342.601 351.21C343.582 351.21 344.401 350.952 345.057 350.435C345.72 349.911 346.217 349.208 346.548 348.327C346.886 347.438 347.055 346.451 347.055 345.364C347.055 344.29 346.89 343.322 346.558 342.46C346.233 341.592 345.74 340.906 345.077 340.402C344.42 339.892 343.595 339.636 342.601 339.636C341.646 339.636 340.844 339.878 340.195 340.362C339.545 340.839 339.054 341.509 338.723 342.371C338.392 343.226 338.226 344.223 338.226 345.364ZM363.81 341.148L361.702 341.744C361.569 341.393 361.374 341.052 361.115 340.72C360.863 340.382 360.518 340.104 360.081 339.885C359.643 339.666 359.083 339.557 358.401 339.557C357.466 339.557 356.687 339.772 356.064 340.203C355.447 340.627 355.139 341.168 355.139 341.824C355.139 342.407 355.351 342.868 355.776 343.206C356.2 343.544 356.863 343.826 357.764 344.051L360.031 344.608C361.397 344.939 362.414 345.446 363.084 346.129C363.753 346.805 364.088 347.677 364.088 348.744C364.088 349.619 363.836 350.402 363.332 351.091C362.835 351.78 362.139 352.324 361.244 352.722C360.349 353.119 359.309 353.318 358.122 353.318C356.564 353.318 355.275 352.98 354.254 352.304C353.233 351.628 352.587 350.64 352.315 349.341L354.543 348.784C354.755 349.606 355.156 350.223 355.746 350.634C356.342 351.045 357.121 351.25 358.082 351.25C359.176 351.25 360.045 351.018 360.688 350.554C361.337 350.083 361.662 349.52 361.662 348.864C361.662 348.333 361.476 347.889 361.105 347.531C360.734 347.167 360.164 346.895 359.395 346.716L356.849 346.119C355.451 345.788 354.423 345.274 353.767 344.578C353.117 343.875 352.793 342.997 352.793 341.943C352.793 341.081 353.035 340.319 353.518 339.656C354.009 338.993 354.675 338.473 355.517 338.095C356.366 337.717 357.327 337.528 358.401 337.528C359.912 337.528 361.098 337.86 361.96 338.523C362.829 339.186 363.445 340.061 363.81 341.148ZM367.62 353V337.727H369.967V353H367.62ZM368.814 335.182C368.356 335.182 367.962 335.026 367.63 334.714C367.306 334.403 367.143 334.028 367.143 333.591C367.143 333.153 367.306 332.779 367.63 332.467C367.962 332.156 368.356 332 368.814 332C369.271 332 369.662 332.156 369.987 332.467C370.318 332.779 370.484 333.153 370.484 333.591C370.484 334.028 370.318 334.403 369.987 334.714C369.662 335.026 369.271 335.182 368.814 335.182ZM380.907 337.727V339.716H372.992V337.727H380.907ZM375.299 334.068H377.646V348.625C377.646 349.288 377.742 349.785 377.934 350.116C378.133 350.441 378.385 350.66 378.69 350.773C379.001 350.879 379.329 350.932 379.674 350.932C379.933 350.932 380.145 350.919 380.31 350.892C380.476 350.859 380.609 350.832 380.708 350.812L381.185 352.92C381.026 352.98 380.804 353.04 380.519 353.099C380.234 353.166 379.873 353.199 379.435 353.199C378.772 353.199 378.123 353.056 377.487 352.771C376.857 352.486 376.333 352.052 375.915 351.469C375.504 350.885 375.299 350.15 375.299 349.261V334.068ZM390.676 353.318C389.205 353.318 387.935 352.993 386.868 352.344C385.807 351.688 384.989 350.773 384.412 349.599C383.842 348.42 383.557 347.047 383.557 345.483C383.557 343.919 383.842 342.54 384.412 341.347C384.989 340.147 385.791 339.212 386.818 338.543C387.852 337.866 389.059 337.528 390.438 337.528C391.233 337.528 392.018 337.661 392.794 337.926C393.57 338.191 394.276 338.622 394.912 339.219C395.548 339.809 396.055 340.591 396.433 341.565C396.811 342.54 397 343.74 397 345.165V346.159H385.227V344.131H394.614C394.614 343.269 394.441 342.5 394.097 341.824C393.759 341.148 393.275 340.614 392.645 340.223C392.022 339.832 391.286 339.636 390.438 339.636C389.503 339.636 388.694 339.868 388.011 340.332C387.335 340.79 386.815 341.386 386.45 342.122C386.086 342.858 385.903 343.647 385.903 344.489V345.841C385.903 346.994 386.102 347.972 386.5 348.774C386.904 349.57 387.464 350.176 388.18 350.594C388.896 351.005 389.728 351.21 390.676 351.21C391.293 351.21 391.849 351.124 392.347 350.952C392.85 350.773 393.285 350.508 393.649 350.156C394.014 349.798 394.295 349.354 394.494 348.824L396.761 349.46C396.523 350.229 396.122 350.905 395.558 351.489C394.995 352.065 394.299 352.516 393.47 352.841C392.642 353.159 391.71 353.318 390.676 353.318ZM404.07 350.216L403.911 351.29C403.798 352.045 403.625 352.854 403.393 353.716C403.168 354.578 402.933 355.39 402.688 356.152C402.442 356.914 402.24 357.521 402.081 357.972H400.291C400.377 357.547 400.49 356.987 400.629 356.291C400.768 355.595 400.908 354.816 401.047 353.955C401.193 353.099 401.312 352.224 401.405 351.33L401.524 350.216H404.07ZM420.787 353.358C419.819 353.358 418.94 353.176 418.152 352.811C417.363 352.44 416.736 351.906 416.272 351.21C415.808 350.508 415.576 349.659 415.576 348.665C415.576 347.79 415.749 347.08 416.093 346.537C416.438 345.987 416.899 345.556 417.475 345.244C418.052 344.933 418.689 344.701 419.385 344.548C420.087 344.389 420.793 344.263 421.502 344.17C422.431 344.051 423.183 343.962 423.76 343.902C424.343 343.836 424.767 343.726 425.032 343.574C425.304 343.421 425.44 343.156 425.44 342.778V342.699C425.44 341.718 425.172 340.955 424.635 340.412C424.104 339.868 423.299 339.597 422.218 339.597C421.098 339.597 420.22 339.842 419.583 340.332C418.947 340.823 418.5 341.347 418.241 341.903L416.014 341.108C416.412 340.18 416.942 339.457 417.605 338.94C418.274 338.417 419.003 338.052 419.792 337.847C420.588 337.634 421.37 337.528 422.139 337.528C422.629 337.528 423.193 337.588 423.829 337.707C424.472 337.82 425.092 338.055 425.689 338.413C426.292 338.771 426.792 339.312 427.19 340.034C427.588 340.757 427.787 341.724 427.787 342.938V353H425.44V350.932H425.321C425.162 351.263 424.896 351.618 424.525 351.996C424.154 352.374 423.66 352.695 423.044 352.96C422.427 353.225 421.675 353.358 420.787 353.358ZM421.145 351.25C422.073 351.25 422.855 351.068 423.491 350.703C424.134 350.339 424.618 349.868 424.943 349.291C425.274 348.714 425.44 348.108 425.44 347.472V345.324C425.341 345.443 425.122 345.553 424.784 345.652C424.452 345.745 424.068 345.828 423.63 345.901C423.199 345.967 422.779 346.027 422.368 346.08C421.963 346.126 421.635 346.166 421.383 346.199C420.773 346.278 420.203 346.408 419.673 346.587C419.149 346.759 418.725 347.021 418.4 347.372C418.082 347.717 417.923 348.187 417.923 348.784C417.923 349.599 418.225 350.216 418.828 350.634C419.438 351.045 420.21 351.25 421.145 351.25ZM432.07 358.727V337.727H434.337V340.153H434.615C434.787 339.888 435.026 339.55 435.331 339.139C435.643 338.722 436.087 338.35 436.663 338.026C437.247 337.694 438.036 337.528 439.03 337.528C440.316 337.528 441.449 337.85 442.43 338.493C443.411 339.136 444.177 340.047 444.727 341.227C445.277 342.407 445.553 343.799 445.553 345.403C445.553 347.021 445.277 348.423 444.727 349.609C444.177 350.789 443.415 351.704 442.44 352.354C441.466 352.997 440.342 353.318 439.07 353.318C438.089 353.318 437.303 353.156 436.713 352.831C436.123 352.5 435.669 352.125 435.351 351.707C435.033 351.283 434.787 350.932 434.615 350.653H434.416V358.727H432.07ZM434.376 345.364C434.376 346.517 434.545 347.535 434.884 348.416C435.222 349.291 435.715 349.977 436.365 350.474C437.015 350.965 437.81 351.21 438.751 351.21C439.732 351.21 440.551 350.952 441.207 350.435C441.87 349.911 442.367 349.208 442.699 348.327C443.037 347.438 443.206 346.451 443.206 345.364C443.206 344.29 443.04 343.322 442.709 342.46C442.384 341.592 441.89 340.906 441.227 340.402C440.571 339.892 439.746 339.636 438.751 339.636C437.797 339.636 436.995 339.878 436.345 340.362C435.696 340.839 435.205 341.509 434.874 342.371C434.542 343.226 434.376 344.223 434.376 345.364ZM451.479 332.636V353H449.132V332.636H451.479ZM455.777 353V337.727H458.123V353H455.777ZM456.97 335.182C456.512 335.182 456.118 335.026 455.787 334.714C455.462 334.403 455.299 334.028 455.299 333.591C455.299 333.153 455.462 332.779 455.787 332.467C456.118 332.156 456.512 332 456.97 332C457.427 332 457.818 332.156 458.143 332.467C458.475 332.779 458.64 333.153 458.64 333.591C458.64 334.028 458.475 334.403 458.143 334.714C457.818 335.026 457.427 335.182 456.97 335.182ZM464.609 347.432L464.569 344.528H465.046L471.728 337.727H474.631L467.512 344.926H467.313L464.609 347.432ZM462.421 353V332.636H464.768V353H462.421ZM472.126 353L466.16 345.443L467.83 343.812L475.109 353H472.126ZM482.146 353.358C481.178 353.358 480.3 353.176 479.511 352.811C478.722 352.44 478.096 351.906 477.632 351.21C477.168 350.508 476.936 349.659 476.936 348.665C476.936 347.79 477.108 347.08 477.453 346.537C477.797 345.987 478.258 345.556 478.835 345.244C479.412 344.933 480.048 344.701 480.744 344.548C481.447 344.389 482.153 344.263 482.862 344.17C483.79 344.051 484.542 343.962 485.119 343.902C485.702 343.836 486.127 343.726 486.392 343.574C486.663 343.421 486.799 343.156 486.799 342.778V342.699C486.799 341.718 486.531 340.955 485.994 340.412C485.464 339.868 484.658 339.597 483.578 339.597C482.458 339.597 481.579 339.842 480.943 340.332C480.306 340.823 479.859 341.347 479.6 341.903L477.373 341.108C477.771 340.18 478.301 339.457 478.964 338.94C479.634 338.417 480.363 338.052 481.152 337.847C481.947 337.634 482.729 337.528 483.498 337.528C483.989 337.528 484.552 337.588 485.189 337.707C485.832 337.82 486.451 338.055 487.048 338.413C487.651 338.771 488.152 339.312 488.549 340.034C488.947 340.757 489.146 341.724 489.146 342.938V353H486.799V350.932H486.68C486.521 351.263 486.256 351.618 485.885 351.996C485.513 352.374 485.02 352.695 484.403 352.96C483.787 353.225 483.034 353.358 482.146 353.358ZM482.504 351.25C483.432 351.25 484.214 351.068 484.85 350.703C485.493 350.339 485.977 349.868 486.302 349.291C486.634 348.714 486.799 348.108 486.799 347.472V345.324C486.7 345.443 486.481 345.553 486.143 345.652C485.812 345.745 485.427 345.828 484.99 345.901C484.559 345.967 484.138 346.027 483.727 346.08C483.323 346.126 482.994 346.166 482.743 346.199C482.133 346.278 481.563 346.408 481.032 346.587C480.509 346.759 480.084 347.021 479.76 347.372C479.441 347.717 479.282 348.187 479.282 348.784C479.282 349.599 479.584 350.216 480.187 350.634C480.797 351.045 481.569 351.25 482.504 351.25ZM504.247 341.148L502.139 341.744C502.007 341.393 501.811 341.052 501.553 340.72C501.301 340.382 500.956 340.104 500.518 339.885C500.081 339.666 499.521 339.557 498.838 339.557C497.903 339.557 497.125 339.772 496.501 340.203C495.885 340.627 495.577 341.168 495.577 341.824C495.577 342.407 495.789 342.868 496.213 343.206C496.637 343.544 497.3 343.826 498.202 344.051L500.469 344.608C501.834 344.939 502.852 345.446 503.521 346.129C504.191 346.805 504.526 347.677 504.526 348.744C504.526 349.619 504.274 350.402 503.77 351.091C503.273 351.78 502.577 352.324 501.682 352.722C500.787 353.119 499.746 353.318 498.56 353.318C497.002 353.318 495.713 352.98 494.692 352.304C493.671 351.628 493.025 350.64 492.753 349.341L494.98 348.784C495.192 349.606 495.593 350.223 496.183 350.634C496.78 351.045 497.559 351.25 498.52 351.25C499.614 351.25 500.482 351.018 501.125 350.554C501.775 350.083 502.099 349.52 502.099 348.864C502.099 348.333 501.914 347.889 501.543 347.531C501.171 347.167 500.601 346.895 499.832 346.716L497.287 346.119C495.888 345.788 494.861 345.274 494.205 344.578C493.555 343.875 493.23 342.997 493.23 341.943C493.23 341.081 493.472 340.319 493.956 339.656C494.446 338.993 495.113 338.473 495.955 338.095C496.803 337.717 497.764 337.528 498.838 337.528C500.349 337.528 501.536 337.86 502.398 338.523C503.266 339.186 503.883 340.061 504.247 341.148ZM508.058 353V337.727H510.404V353H508.058ZM509.251 335.182C508.794 335.182 508.399 335.026 508.068 334.714C507.743 334.403 507.581 334.028 507.581 333.591C507.581 333.153 507.743 332.779 508.068 332.467C508.399 332.156 508.794 332 509.251 332C509.708 332 510.1 332.156 510.424 332.467C510.756 332.779 510.922 333.153 510.922 333.591C510.922 334.028 510.756 334.403 510.424 334.714C510.1 335.026 509.708 335.182 509.251 335.182ZM523.731 353H521.146L528.623 332.636H531.168L538.646 353H536.06L529.975 335.858H529.816L523.731 353ZM524.685 345.045H535.106V347.233H524.685V345.045ZM543.846 343.812V353H541.499V337.727H543.766V340.114H543.965C544.323 339.338 544.867 338.715 545.596 338.244C546.325 337.767 547.266 337.528 548.42 337.528C549.454 337.528 550.359 337.741 551.134 338.165C551.91 338.582 552.513 339.219 552.944 340.074C553.375 340.922 553.59 341.996 553.59 343.295V353H551.244V343.455C551.244 342.255 550.932 341.32 550.309 340.651C549.686 339.974 548.831 339.636 547.744 339.636C546.995 339.636 546.325 339.799 545.735 340.124C545.152 340.448 544.691 340.922 544.353 341.545C544.015 342.169 543.846 342.924 543.846 343.812ZM563.645 353.318C562.373 353.318 561.249 352.997 560.275 352.354C559.3 351.704 558.538 350.789 557.988 349.609C557.437 348.423 557.162 347.021 557.162 345.403C557.162 343.799 557.437 342.407 557.988 341.227C558.538 340.047 559.303 339.136 560.284 338.493C561.266 337.85 562.399 337.528 563.685 337.528C564.679 337.528 565.465 337.694 566.042 338.026C566.625 338.35 567.069 338.722 567.374 339.139C567.685 339.55 567.927 339.888 568.1 340.153H568.299V332.636H570.645V353H568.378V350.653H568.1C567.927 350.932 567.682 351.283 567.364 351.707C567.046 352.125 566.592 352.5 566.002 352.831C565.412 353.156 564.626 353.318 563.645 353.318ZM563.963 351.21C564.905 351.21 565.7 350.965 566.35 350.474C566.999 349.977 567.493 349.291 567.831 348.416C568.169 347.535 568.338 346.517 568.338 345.364C568.338 344.223 568.173 343.226 567.841 342.371C567.51 341.509 567.019 340.839 566.37 340.362C565.72 339.878 564.918 339.636 563.963 339.636C562.969 339.636 562.141 339.892 561.478 340.402C560.821 340.906 560.328 341.592 559.996 342.46C559.671 343.322 559.509 344.29 559.509 345.364C559.509 346.451 559.675 347.438 560.006 348.327C560.344 349.208 560.841 349.911 561.498 350.435C562.16 350.952 562.982 351.21 563.963 351.21ZM575.269 353V337.727H577.536V340.034H577.695C577.973 339.278 578.477 338.665 579.206 338.195C579.935 337.724 580.757 337.489 581.672 337.489C581.845 337.489 582.06 337.492 582.319 337.499C582.577 337.505 582.773 337.515 582.905 337.528V339.915C582.826 339.895 582.643 339.865 582.358 339.825C582.08 339.779 581.785 339.756 581.473 339.756C580.731 339.756 580.068 339.911 579.485 340.223C578.908 340.528 578.451 340.952 578.113 341.496C577.781 342.033 577.615 342.646 577.615 343.335V353H575.269ZM591.426 353.318C590.048 353.318 588.838 352.99 587.797 352.334C586.763 351.678 585.954 350.759 585.371 349.58C584.794 348.4 584.506 347.021 584.506 345.443C584.506 343.852 584.794 342.464 585.371 341.277C585.954 340.09 586.763 339.169 587.797 338.513C588.838 337.857 590.048 337.528 591.426 337.528C592.805 337.528 594.012 337.857 595.046 338.513C596.087 339.169 596.895 340.09 597.472 341.277C598.055 342.464 598.347 343.852 598.347 345.443C598.347 347.021 598.055 348.4 597.472 349.58C596.895 350.759 596.087 351.678 595.046 352.334C594.012 352.99 592.805 353.318 591.426 353.318ZM591.426 351.21C592.474 351.21 593.336 350.942 594.012 350.405C594.688 349.868 595.188 349.162 595.513 348.287C595.838 347.412 596 346.464 596 345.443C596 344.422 595.838 343.471 595.513 342.589C595.188 341.708 594.688 340.995 594.012 340.452C593.336 339.908 592.474 339.636 591.426 339.636C590.379 339.636 589.517 339.908 588.841 340.452C588.165 340.995 587.665 341.708 587.34 342.589C587.015 343.471 586.853 344.422 586.853 345.443C586.853 346.464 587.015 347.412 587.34 348.287C587.665 349.162 588.165 349.868 588.841 350.405C589.517 350.942 590.379 351.21 591.426 351.21ZM601.929 353V337.727H604.276V353H601.929ZM603.122 335.182C602.665 335.182 602.27 335.026 601.939 334.714C601.614 334.403 601.452 334.028 601.452 333.591C601.452 333.153 601.614 332.779 601.939 332.467C602.27 332.156 602.665 332 603.122 332C603.58 332 603.971 332.156 604.295 332.467C604.627 332.779 604.793 333.153 604.793 333.591C604.793 334.028 604.627 334.403 604.295 334.714C603.971 335.026 603.58 335.182 603.122 335.182ZM614.341 353.318C613.068 353.318 611.944 352.997 610.97 352.354C609.995 351.704 609.233 350.789 608.683 349.609C608.133 348.423 607.858 347.021 607.858 345.403C607.858 343.799 608.133 342.407 608.683 341.227C609.233 340.047 609.999 339.136 610.98 338.493C611.961 337.85 613.094 337.528 614.38 337.528C615.375 337.528 616.16 337.694 616.737 338.026C617.32 338.35 617.764 338.722 618.069 339.139C618.381 339.55 618.623 339.888 618.795 340.153H618.994V332.636H621.341V353H619.074V350.653H618.795C618.623 350.932 618.377 351.283 618.059 351.707C617.741 352.125 617.287 352.5 616.697 352.831C616.107 353.156 615.322 353.318 614.341 353.318ZM614.659 351.21C615.6 351.21 616.395 350.965 617.045 350.474C617.695 349.977 618.189 349.291 618.527 348.416C618.865 347.535 619.034 346.517 619.034 345.364C619.034 344.223 618.868 343.226 618.537 342.371C618.205 341.509 617.715 340.839 617.065 340.362C616.415 339.878 615.613 339.636 614.659 339.636C613.664 339.636 612.836 339.892 612.173 340.402C611.517 340.906 611.023 341.592 610.691 342.46C610.367 343.322 610.204 344.29 610.204 345.364C610.204 346.451 610.37 347.438 610.701 348.327C611.039 349.208 611.537 349.911 612.193 350.435C612.856 350.952 613.678 351.21 614.659 351.21ZM629.464 350.216L629.305 351.29C629.192 352.045 629.02 352.854 628.788 353.716C628.563 354.578 628.327 355.39 628.082 356.152C627.837 356.914 627.635 357.521 627.475 357.972H625.686C625.772 357.547 625.885 356.987 626.024 356.291C626.163 355.595 626.302 354.816 626.441 353.955C626.587 353.099 626.707 352.224 626.799 351.33L626.919 350.216H629.464ZM647.454 353.318C646.181 353.318 645.058 352.997 644.083 352.354C643.109 351.704 642.346 350.789 641.796 349.609C641.246 348.423 640.971 347.021 640.971 345.403C640.971 343.799 641.246 342.407 641.796 341.227C642.346 340.047 643.112 339.136 644.093 338.493C645.074 337.85 646.208 337.528 647.494 337.528C648.488 337.528 649.273 337.694 649.85 338.026C650.433 338.35 650.878 338.722 651.183 339.139C651.494 339.55 651.736 339.888 651.908 340.153H652.107V332.636H654.454V353H652.187V350.653H651.908C651.736 350.932 651.491 351.283 651.173 351.707C650.854 352.125 650.4 352.5 649.81 352.831C649.22 353.156 648.435 353.318 647.454 353.318ZM647.772 351.21C648.713 351.21 649.509 350.965 650.158 350.474C650.808 349.977 651.302 349.291 651.64 348.416C651.978 347.535 652.147 346.517 652.147 345.364C652.147 344.223 651.981 343.226 651.65 342.371C651.318 341.509 650.828 340.839 650.178 340.362C649.529 339.878 648.727 339.636 647.772 339.636C646.778 339.636 645.949 339.892 645.286 340.402C644.63 340.906 644.136 341.592 643.805 342.46C643.48 343.322 643.317 344.29 643.317 345.364C643.317 346.451 643.483 347.438 643.815 348.327C644.153 349.208 644.65 349.911 645.306 350.435C645.969 350.952 646.791 351.21 647.772 351.21ZM663.572 353.358C662.604 353.358 661.726 353.176 660.937 352.811C660.148 352.44 659.522 351.906 659.058 351.21C658.594 350.508 658.362 349.659 658.362 348.665C658.362 347.79 658.534 347.08 658.879 346.537C659.223 345.987 659.684 345.556 660.261 345.244C660.837 344.933 661.474 344.701 662.17 344.548C662.872 344.389 663.578 344.263 664.288 344.17C665.216 344.051 665.968 343.962 666.545 343.902C667.128 343.836 667.552 343.726 667.817 343.574C668.089 343.421 668.225 343.156 668.225 342.778V342.699C668.225 341.718 667.957 340.955 667.42 340.412C666.889 339.868 666.084 339.597 665.004 339.597C663.883 339.597 663.005 339.842 662.369 340.332C661.732 340.823 661.285 341.347 661.026 341.903L658.799 341.108C659.197 340.18 659.727 339.457 660.39 338.94C661.059 338.417 661.789 338.052 662.577 337.847C663.373 337.634 664.155 337.528 664.924 337.528C665.415 337.528 665.978 337.588 666.614 337.707C667.257 337.82 667.877 338.055 668.474 338.413C669.077 338.771 669.577 339.312 669.975 340.034C670.373 340.757 670.572 341.724 670.572 342.938V353H668.225V350.932H668.106C667.947 351.263 667.682 351.618 667.31 351.996C666.939 352.374 666.445 352.695 665.829 352.96C665.212 353.225 664.46 353.358 663.572 353.358ZM663.93 351.25C664.858 351.25 665.64 351.068 666.276 350.703C666.919 350.339 667.403 349.868 667.728 349.291C668.059 348.714 668.225 348.108 668.225 347.472V345.324C668.126 345.443 667.907 345.553 667.569 345.652C667.237 345.745 666.853 345.828 666.415 345.901C665.985 345.967 665.564 346.027 665.153 346.08C664.748 346.126 664.42 346.166 664.168 346.199C663.558 346.278 662.988 346.408 662.458 346.587C661.934 346.759 661.51 347.021 661.185 347.372C660.867 347.717 660.708 348.187 660.708 348.784C660.708 349.599 661.01 350.216 661.613 350.634C662.223 351.045 662.995 351.25 663.93 351.25ZM677.201 343.812V353H674.855V337.727H677.122V340.114H677.321C677.679 339.338 678.222 338.715 678.951 338.244C679.681 337.767 680.622 337.528 681.775 337.528C682.809 337.528 683.714 337.741 684.49 338.165C685.265 338.582 685.868 339.219 686.299 340.074C686.73 340.922 686.946 341.996 686.946 343.295V353H684.599V343.455C684.599 342.255 684.288 341.32 683.664 340.651C683.041 339.974 682.186 339.636 681.099 339.636C680.35 339.636 679.681 339.799 679.091 340.124C678.507 340.448 678.047 340.922 677.708 341.545C677.37 342.169 677.201 342.924 677.201 343.812ZM709.927 341.148L707.819 341.744C707.686 341.393 707.491 341.052 707.232 340.72C706.98 340.382 706.636 340.104 706.198 339.885C705.761 339.666 705.201 339.557 704.518 339.557C703.583 339.557 702.804 339.772 702.181 340.203C701.565 340.627 701.256 341.168 701.256 341.824C701.256 342.407 701.469 342.868 701.893 343.206C702.317 343.544 702.98 343.826 703.881 344.051L706.148 344.608C707.514 344.939 708.531 345.446 709.201 346.129C709.871 346.805 710.205 347.677 710.205 348.744C710.205 349.619 709.953 350.402 709.45 351.091C708.952 351.78 708.256 352.324 707.362 352.722C706.467 353.119 705.426 353.318 704.239 353.318C702.682 353.318 701.392 352.98 700.371 352.304C699.351 351.628 698.704 350.64 698.433 349.341L700.66 348.784C700.872 349.606 701.273 350.223 701.863 350.634C702.46 351.045 703.238 351.25 704.2 351.25C705.293 351.25 706.162 351.018 706.805 350.554C707.454 350.083 707.779 349.52 707.779 348.864C707.779 348.333 707.594 347.889 707.222 347.531C706.851 347.167 706.281 346.895 705.512 346.716L702.967 346.119C701.568 345.788 700.54 345.274 699.884 344.578C699.235 343.875 698.91 342.997 698.91 341.943C698.91 341.081 699.152 340.319 699.636 339.656C700.126 338.993 700.792 338.473 701.634 338.095C702.483 337.717 703.444 337.528 704.518 337.528C706.029 337.528 707.216 337.86 708.077 338.523C708.946 339.186 709.562 340.061 709.927 341.148ZM713.738 353V337.727H716.084V353H713.738ZM714.931 335.182C714.473 335.182 714.079 335.026 713.748 334.714C713.423 334.403 713.26 334.028 713.26 333.591C713.26 333.153 713.423 332.779 713.748 332.467C714.079 332.156 714.473 332 714.931 332C715.388 332 715.779 332.156 716.104 332.467C716.435 332.779 716.601 333.153 716.601 333.591C716.601 334.028 716.435 334.403 716.104 334.714C715.779 335.026 715.388 335.182 714.931 335.182ZM731.2 341.148L729.092 341.744C728.96 341.393 728.764 341.052 728.506 340.72C728.254 340.382 727.909 340.104 727.472 339.885C727.034 339.666 726.474 339.557 725.791 339.557C724.857 339.557 724.078 339.772 723.455 340.203C722.838 340.627 722.53 341.168 722.53 341.824C722.53 342.407 722.742 342.868 723.166 343.206C723.59 343.544 724.253 343.826 725.155 344.051L727.422 344.608C728.787 344.939 729.805 345.446 730.474 346.129C731.144 346.805 731.479 347.677 731.479 348.744C731.479 349.619 731.227 350.402 730.723 351.091C730.226 351.78 729.53 352.324 728.635 352.722C727.74 353.119 726.699 353.318 725.513 353.318C723.955 353.318 722.666 352.98 721.645 352.304C720.624 351.628 719.978 350.64 719.706 349.341L721.933 348.784C722.145 349.606 722.546 350.223 723.136 350.634C723.733 351.045 724.512 351.25 725.473 351.25C726.567 351.25 727.435 351.018 728.078 350.554C728.728 350.083 729.053 349.52 729.053 348.864C729.053 348.333 728.867 347.889 728.496 347.531C728.125 347.167 727.554 346.895 726.786 346.716L724.24 346.119C722.841 345.788 721.814 345.274 721.158 344.578C720.508 343.875 720.183 342.997 720.183 341.943C720.183 341.081 720.425 340.319 720.909 339.656C721.4 338.993 722.066 338.473 722.908 338.095C723.756 337.717 724.717 337.528 725.791 337.528C727.303 337.528 728.489 337.86 729.351 338.523C730.219 339.186 730.836 340.061 731.2 341.148ZM741.653 337.727V339.716H733.738V337.727H741.653ZM736.045 334.068H738.392V348.625C738.392 349.288 738.488 349.785 738.68 350.116C738.879 350.441 739.131 350.66 739.436 350.773C739.747 350.879 740.075 350.932 740.42 350.932C740.679 350.932 740.891 350.919 741.056 350.892C741.222 350.859 741.355 350.832 741.454 350.812L741.931 352.92C741.772 352.98 741.55 353.04 741.265 353.099C740.98 353.166 740.619 353.199 740.181 353.199C739.519 353.199 738.869 353.056 738.233 352.771C737.603 352.486 737.079 352.052 736.662 351.469C736.251 350.885 736.045 350.15 736.045 349.261V334.068ZM751.422 353.318C749.951 353.318 748.681 352.993 747.614 352.344C746.553 351.688 745.735 350.773 745.158 349.599C744.588 348.42 744.303 347.047 744.303 345.483C744.303 343.919 744.588 342.54 745.158 341.347C745.735 340.147 746.537 339.212 747.564 338.543C748.598 337.866 749.805 337.528 751.184 337.528C751.979 337.528 752.765 337.661 753.54 337.926C754.316 338.191 755.022 338.622 755.658 339.219C756.294 339.809 756.801 340.591 757.179 341.565C757.557 342.54 757.746 343.74 757.746 345.165V346.159H745.973V344.131H755.36C755.36 343.269 755.187 342.5 754.843 341.824C754.505 341.148 754.021 340.614 753.391 340.223C752.768 339.832 752.032 339.636 751.184 339.636C750.249 339.636 749.44 339.868 748.757 340.332C748.081 340.79 747.561 341.386 747.196 342.122C746.832 342.858 746.65 343.647 746.65 344.489V345.841C746.65 346.994 746.848 347.972 747.246 348.774C747.65 349.57 748.211 350.176 748.926 350.594C749.642 351.005 750.474 351.21 751.422 351.21C752.039 351.21 752.596 351.124 753.093 350.952C753.596 350.773 754.031 350.508 754.395 350.156C754.76 349.798 755.042 349.354 755.24 348.824L757.507 349.46C757.269 350.229 756.868 350.905 756.304 351.489C755.741 352.065 755.045 352.516 754.216 352.841C753.388 353.159 752.456 353.318 751.422 353.318ZM761.316 353V337.727H763.583V340.114H763.782C764.1 339.298 764.614 338.665 765.323 338.214C766.032 337.757 766.884 337.528 767.878 337.528C768.886 337.528 769.724 337.757 770.394 338.214C771.07 338.665 771.597 339.298 771.975 340.114H772.134C772.525 339.325 773.112 338.698 773.894 338.234C774.676 337.764 775.614 337.528 776.708 337.528C778.073 337.528 779.19 337.956 780.059 338.811C780.927 339.66 781.361 340.982 781.361 342.778V353H779.015V342.778C779.015 341.652 778.706 340.846 778.09 340.362C777.473 339.878 776.748 339.636 775.912 339.636C774.838 339.636 774.007 339.961 773.417 340.611C772.827 341.254 772.532 342.069 772.532 343.057V353H770.145V342.54C770.145 341.671 769.864 340.972 769.3 340.442C768.737 339.905 768.011 339.636 767.123 339.636C766.513 339.636 765.943 339.799 765.412 340.124C764.889 340.448 764.464 340.899 764.14 341.476C763.821 342.046 763.662 342.705 763.662 343.455V353H761.316ZM795.038 358.727C794.64 358.727 794.286 358.694 793.974 358.628C793.663 358.568 793.447 358.509 793.328 358.449L793.924 356.381C794.494 356.527 794.998 356.58 795.436 356.54C795.873 356.5 796.261 356.304 796.599 355.953C796.944 355.608 797.259 355.048 797.544 354.273L797.981 353.08L792.333 337.727H794.879L799.095 349.898H799.254L803.47 337.727H806.015L799.532 355.227C799.241 356.016 798.879 356.669 798.449 357.186C798.018 357.71 797.517 358.098 796.947 358.349C796.384 358.601 795.747 358.727 795.038 358.727ZM813.142 353.358C812.174 353.358 811.296 353.176 810.507 352.811C809.718 352.44 809.092 351.906 808.628 351.21C808.164 350.508 807.932 349.659 807.932 348.665C807.932 347.79 808.104 347.08 808.449 346.537C808.794 345.987 809.254 345.556 809.831 345.244C810.408 344.933 811.044 344.701 811.74 344.548C812.443 344.389 813.149 344.263 813.858 344.17C814.786 344.051 815.538 343.962 816.115 343.902C816.698 343.836 817.123 343.726 817.388 343.574C817.66 343.421 817.795 343.156 817.795 342.778V342.699C817.795 341.718 817.527 340.955 816.99 340.412C816.46 339.868 815.654 339.597 814.574 339.597C813.454 339.597 812.575 339.842 811.939 340.332C811.303 340.823 810.855 341.347 810.597 341.903L808.369 341.108C808.767 340.18 809.297 339.457 809.96 338.94C810.63 338.417 811.359 338.052 812.148 337.847C812.943 337.634 813.725 337.528 814.494 337.528C814.985 337.528 815.548 337.588 816.185 337.707C816.828 337.82 817.447 338.055 818.044 338.413C818.647 338.771 819.148 339.312 819.545 340.034C819.943 340.757 820.142 341.724 820.142 342.938V353H817.795V350.932H817.676C817.517 351.263 817.252 351.618 816.881 351.996C816.509 352.374 816.016 352.695 815.399 352.96C814.783 353.225 814.03 353.358 813.142 353.358ZM813.5 351.25C814.428 351.25 815.21 351.068 815.847 350.703C816.49 350.339 816.973 349.868 817.298 349.291C817.63 348.714 817.795 348.108 817.795 347.472V345.324C817.696 345.443 817.477 345.553 817.139 345.652C816.808 345.745 816.423 345.828 815.986 345.901C815.555 345.967 815.134 346.027 814.723 346.08C814.319 346.126 813.991 346.166 813.739 346.199C813.129 346.278 812.559 346.408 812.028 346.587C811.505 346.759 811.08 347.021 810.756 347.372C810.438 347.717 810.278 348.187 810.278 348.784C810.278 349.599 810.58 350.216 811.183 350.634C811.793 351.045 812.565 351.25 813.5 351.25ZM826.772 343.812V353H824.425V337.727H826.692V340.114H826.891C827.249 339.338 827.792 338.715 828.522 338.244C829.251 337.767 830.192 337.528 831.346 337.528C832.38 337.528 833.284 337.741 834.06 338.165C834.836 338.582 835.439 339.219 835.87 340.074C836.301 340.922 836.516 341.996 836.516 343.295V353H834.169V343.455C834.169 342.255 833.858 341.32 833.235 340.651C832.612 339.974 831.757 339.636 830.669 339.636C829.92 339.636 829.251 339.799 828.661 340.124C828.078 340.448 827.617 340.922 827.279 341.545C826.941 342.169 826.772 342.924 826.772 343.812ZM846.969 359.045C845.835 359.045 844.861 358.9 844.045 358.608C843.23 358.323 842.551 357.945 842.007 357.474C841.47 357.01 841.043 356.513 840.724 355.983L842.594 354.67C842.806 354.949 843.074 355.267 843.399 355.625C843.724 355.99 844.168 356.304 844.732 356.57C845.302 356.841 846.047 356.977 846.969 356.977C848.202 356.977 849.219 356.679 850.021 356.082C850.823 355.486 851.224 354.551 851.224 353.278V350.176H851.026C850.853 350.455 850.608 350.799 850.29 351.21C849.978 351.615 849.527 351.976 848.938 352.294C848.354 352.606 847.565 352.761 846.571 352.761C845.338 352.761 844.231 352.47 843.25 351.886C842.276 351.303 841.503 350.455 840.933 349.341C840.37 348.227 840.088 346.875 840.088 345.284C840.088 343.72 840.363 342.357 840.913 341.197C841.464 340.031 842.229 339.129 843.21 338.493C844.191 337.85 845.325 337.528 846.611 337.528C847.605 337.528 848.394 337.694 848.977 338.026C849.567 338.35 850.018 338.722 850.33 339.139C850.648 339.55 850.893 339.888 851.065 340.153H851.304V337.727H853.571V353.438C853.571 354.75 853.273 355.817 852.676 356.639C852.086 357.468 851.291 358.074 850.29 358.459C849.295 358.85 848.188 359.045 846.969 359.045ZM846.889 350.653C847.83 350.653 848.626 350.438 849.276 350.007C849.925 349.576 850.419 348.956 850.757 348.148C851.095 347.339 851.264 346.371 851.264 345.244C851.264 344.144 851.098 343.173 850.767 342.331C850.436 341.489 849.945 340.83 849.295 340.352C848.646 339.875 847.844 339.636 846.889 339.636C845.895 339.636 845.066 339.888 844.403 340.392C843.747 340.896 843.253 341.572 842.922 342.42C842.597 343.269 842.435 344.21 842.435 345.244C842.435 346.305 842.6 347.243 842.932 348.058C843.27 348.867 843.767 349.503 844.423 349.967C845.086 350.425 845.908 350.653 846.889 350.653ZM876.56 341.148L874.452 341.744C874.319 341.393 874.124 341.052 873.865 340.72C873.613 340.382 873.268 340.104 872.831 339.885C872.393 339.666 871.833 339.557 871.151 339.557C870.216 339.557 869.437 339.772 868.814 340.203C868.197 340.627 867.889 341.168 867.889 341.824C867.889 342.407 868.101 342.868 868.526 343.206C868.95 343.544 869.613 343.826 870.514 344.051L872.781 344.608C874.147 344.939 875.164 345.446 875.834 346.129C876.503 346.805 876.838 347.677 876.838 348.744C876.838 349.619 876.586 350.402 876.082 351.091C875.585 351.78 874.889 352.324 873.994 352.722C873.099 353.119 872.059 353.318 870.872 353.318C869.314 353.318 868.025 352.98 867.004 352.304C865.983 351.628 865.337 350.64 865.065 349.341L867.293 348.784C867.505 349.606 867.906 350.223 868.496 350.634C869.092 351.045 869.871 351.25 870.832 351.25C871.926 351.25 872.795 351.018 873.438 350.554C874.087 350.083 874.412 349.52 874.412 348.864C874.412 348.333 874.226 347.889 873.855 347.531C873.484 347.167 872.914 346.895 872.145 346.716L869.599 346.119C868.201 345.788 867.173 345.274 866.517 344.578C865.867 343.875 865.543 342.997 865.543 341.943C865.543 341.081 865.785 340.319 866.268 339.656C866.759 338.993 867.425 338.473 868.267 338.095C869.116 337.717 870.077 337.528 871.151 337.528C872.662 337.528 873.848 337.86 874.71 338.523C875.579 339.186 876.195 340.061 876.56 341.148ZM884.865 353.358C883.897 353.358 883.019 353.176 882.23 352.811C881.441 352.44 880.815 351.906 880.35 351.21C879.886 350.508 879.654 349.659 879.654 348.665C879.654 347.79 879.827 347.08 880.172 346.537C880.516 345.987 880.977 345.556 881.554 345.244C882.13 344.933 882.767 344.701 883.463 344.548C884.165 344.389 884.871 344.263 885.581 344.17C886.509 344.051 887.261 343.962 887.838 343.902C888.421 343.836 888.845 343.726 889.11 343.574C889.382 343.421 889.518 343.156 889.518 342.778V342.699C889.518 341.718 889.25 340.955 888.713 340.412C888.182 339.868 887.377 339.597 886.297 339.597C885.176 339.597 884.298 339.842 883.662 340.332C883.025 340.823 882.578 341.347 882.319 341.903L880.092 341.108C880.49 340.18 881.02 339.457 881.683 338.94C882.352 338.417 883.082 338.052 883.87 337.847C884.666 337.634 885.448 337.528 886.217 337.528C886.708 337.528 887.271 337.588 887.907 337.707C888.55 337.82 889.17 338.055 889.767 338.413C890.37 338.771 890.87 339.312 891.268 340.034C891.666 340.757 891.865 341.724 891.865 342.938V353H889.518V350.932H889.399C889.24 351.263 888.975 351.618 888.603 351.996C888.232 352.374 887.738 352.695 887.122 352.96C886.505 353.225 885.753 353.358 884.865 353.358ZM885.223 351.25C886.151 351.25 886.933 351.068 887.569 350.703C888.212 350.339 888.696 349.868 889.021 349.291C889.352 348.714 889.518 348.108 889.518 347.472V345.324C889.419 345.443 889.2 345.553 888.862 345.652C888.53 345.745 888.146 345.828 887.708 345.901C887.278 345.967 886.857 346.027 886.446 346.08C886.041 346.126 885.713 346.166 885.461 346.199C884.851 346.278 884.281 346.408 883.751 346.587C883.227 346.759 882.803 347.021 882.478 347.372C882.16 347.717 882.001 348.187 882.001 348.784C882.001 349.599 882.303 350.216 882.906 350.634C883.516 351.045 884.288 351.25 885.223 351.25ZM898.494 332.636V353H896.148V332.636H898.494ZM902.792 353V337.727H905.139V353H902.792ZM903.985 335.182C903.528 335.182 903.134 335.026 902.802 334.714C902.477 334.403 902.315 334.028 902.315 333.591C902.315 333.153 902.477 332.779 902.802 332.467C903.134 332.156 903.528 332 903.985 332C904.443 332 904.834 332.156 905.159 332.467C905.49 332.779 905.656 333.153 905.656 333.591C905.656 334.028 905.49 334.403 905.159 334.714C904.834 335.026 904.443 335.182 903.985 335.182ZM911.783 343.812V353H909.437V337.727H911.704V340.114H911.903C912.261 339.338 912.804 338.715 913.533 338.244C914.263 337.767 915.204 337.528 916.357 337.528C917.391 337.528 918.296 337.741 919.072 338.165C919.847 338.582 920.451 339.219 920.881 340.074C921.312 340.922 921.528 341.996 921.528 343.295V353H919.181V343.455C919.181 342.255 918.87 341.32 918.246 340.651C917.623 339.974 916.768 339.636 915.681 339.636C914.932 339.636 914.263 339.799 913.673 340.124C913.089 340.448 912.629 340.922 912.29 341.545C911.952 342.169 911.783 342.924 911.783 343.812ZM931.98 359.045C930.847 359.045 929.873 358.9 929.057 358.608C928.242 358.323 927.562 357.945 927.019 357.474C926.482 357.01 926.054 356.513 925.736 355.983L927.605 354.67C927.818 354.949 928.086 355.267 928.411 355.625C928.736 355.99 929.18 356.304 929.743 356.57C930.313 356.841 931.059 356.977 931.98 356.977C933.213 356.977 934.231 356.679 935.033 356.082C935.835 355.486 936.236 354.551 936.236 353.278V350.176H936.037C935.865 350.455 935.62 350.799 935.301 351.21C934.99 351.615 934.539 351.976 933.949 352.294C933.366 352.606 932.577 352.761 931.583 352.761C930.35 352.761 929.243 352.47 928.262 351.886C927.287 351.303 926.515 350.455 925.945 349.341C925.382 348.227 925.1 346.875 925.1 345.284C925.1 343.72 925.375 342.357 925.925 341.197C926.475 340.031 927.241 339.129 928.222 338.493C929.203 337.85 930.337 337.528 931.623 337.528C932.617 337.528 933.406 337.694 933.989 338.026C934.579 338.35 935.03 338.722 935.341 339.139C935.659 339.55 935.905 339.888 936.077 340.153H936.316V337.727H938.583V353.438C938.583 354.75 938.284 355.817 937.688 356.639C937.098 357.468 936.302 358.074 935.301 358.459C934.307 358.85 933.2 359.045 931.98 359.045ZM931.901 350.653C932.842 350.653 933.638 350.438 934.287 350.007C934.937 349.576 935.431 348.956 935.769 348.148C936.107 347.339 936.276 346.371 936.276 345.244C936.276 344.144 936.11 343.173 935.779 342.331C935.447 341.489 934.957 340.83 934.307 340.352C933.658 339.875 932.855 339.636 931.901 339.636C930.907 339.636 930.078 339.888 929.415 340.392C928.759 340.896 928.265 341.572 927.934 342.42C927.609 343.269 927.446 344.21 927.446 345.244C927.446 346.305 927.612 347.243 927.944 348.058C928.282 348.867 928.779 349.503 929.435 349.967C930.098 350.425 930.92 350.653 931.901 350.653ZM957.395 337.727V339.716H949.48V337.727H957.395ZM951.787 334.068H954.134V348.625C954.134 349.288 954.23 349.785 954.422 350.116C954.621 350.441 954.873 350.66 955.178 350.773C955.489 350.879 955.818 350.932 956.162 350.932C956.421 350.932 956.633 350.919 956.799 350.892C956.964 350.859 957.097 350.832 957.196 350.812L957.674 352.92C957.515 352.98 957.292 353.04 957.007 353.099C956.722 353.166 956.361 353.199 955.924 353.199C955.261 353.199 954.611 353.056 953.975 352.771C953.345 352.486 952.821 352.052 952.404 351.469C951.993 350.885 951.787 350.15 951.787 349.261V334.068ZM967.164 353.318C965.693 353.318 964.423 352.993 963.356 352.344C962.296 351.688 961.477 350.773 960.9 349.599C960.33 348.42 960.045 347.047 960.045 345.483C960.045 343.919 960.33 342.54 960.9 341.347C961.477 340.147 962.279 339.212 963.306 338.543C964.341 337.866 965.547 337.528 966.926 337.528C967.721 337.528 968.507 337.661 969.282 337.926C970.058 338.191 970.764 338.622 971.4 339.219C972.037 339.809 972.544 340.591 972.922 341.565C973.299 342.54 973.488 343.74 973.488 345.165V346.159H961.716V344.131H971.102C971.102 343.269 970.93 342.5 970.585 341.824C970.247 341.148 969.763 340.614 969.133 340.223C968.51 339.832 967.774 339.636 966.926 339.636C965.991 339.636 965.182 339.868 964.5 340.332C963.824 340.79 963.303 341.386 962.939 342.122C962.574 342.858 962.392 343.647 962.392 344.489V345.841C962.392 346.994 962.591 347.972 962.988 348.774C963.393 349.57 963.953 350.176 964.669 350.594C965.385 351.005 966.217 351.21 967.164 351.21C967.781 351.21 968.338 351.124 968.835 350.952C969.339 350.773 969.773 350.508 970.137 350.156C970.502 349.798 970.784 349.354 970.983 348.824L973.25 349.46C973.011 350.229 972.61 350.905 972.047 351.489C971.483 352.065 970.787 352.516 969.958 352.841C969.13 353.159 968.199 353.318 967.164 353.318ZM977.058 353V337.727H979.325V340.034H979.484C979.762 339.278 980.266 338.665 980.995 338.195C981.725 337.724 982.547 337.489 983.461 337.489C983.634 337.489 983.849 337.492 984.108 337.499C984.366 337.505 984.562 337.515 984.694 337.528V339.915C984.615 339.895 984.432 339.865 984.147 339.825C983.869 339.779 983.574 339.756 983.262 339.756C982.52 339.756 981.857 339.911 981.274 340.223C980.697 340.528 980.24 340.952 979.902 341.496C979.57 342.033 979.404 342.646 979.404 343.335V353H977.058ZM989.822 343.812V353H987.476V332.636H989.822V340.114H990.021C990.379 339.325 990.916 338.698 991.632 338.234C992.355 337.764 993.316 337.528 994.516 337.528C995.556 337.528 996.468 337.737 997.25 338.155C998.032 338.566 998.639 339.199 999.07 340.054C999.507 340.902 999.726 341.983 999.726 343.295V353H997.379V343.455C997.379 342.241 997.064 341.304 996.435 340.641C995.812 339.971 994.946 339.636 993.839 339.636C993.071 339.636 992.381 339.799 991.771 340.124C991.168 340.448 990.691 340.922 990.339 341.545C989.995 342.169 989.822 342.924 989.822 343.812ZM1013.64 346.756V337.727H1015.99V353H1013.64V350.415H1013.48C1013.13 351.19 1012.57 351.85 1011.81 352.393C1011.06 352.93 1010.1 353.199 1008.95 353.199C1008 353.199 1007.15 352.99 1006.41 352.572C1005.66 352.148 1005.08 351.512 1004.66 350.663C1004.23 349.808 1004.02 348.731 1004.02 347.432V337.727H1006.37V347.273C1006.37 348.386 1006.68 349.275 1007.3 349.938C1007.93 350.6 1008.73 350.932 1009.71 350.932C1010.29 350.932 1010.88 350.783 1011.49 350.484C1012.1 350.186 1012.61 349.729 1013.02 349.112C1013.44 348.496 1013.64 347.71 1013.64 346.756ZM1020.61 353V332.636H1022.95V340.153H1023.15C1023.32 339.888 1023.56 339.55 1023.87 339.139C1024.18 338.722 1024.62 338.35 1025.2 338.026C1025.78 337.694 1026.57 337.528 1027.57 337.528C1028.85 337.528 1029.99 337.85 1030.97 338.493C1031.95 339.136 1032.71 340.047 1033.26 341.227C1033.81 342.407 1034.09 343.799 1034.09 345.403C1034.09 347.021 1033.81 348.423 1033.26 349.609C1032.71 350.789 1031.95 351.704 1030.98 352.354C1030 352.997 1028.88 353.318 1027.61 353.318C1026.63 353.318 1025.84 353.156 1025.25 352.831C1024.66 352.5 1024.21 352.125 1023.89 351.707C1023.57 351.283 1023.32 350.932 1023.15 350.653H1022.87V353H1020.61ZM1022.91 345.364C1022.91 346.517 1023.08 347.535 1023.42 348.416C1023.76 349.291 1024.25 349.977 1024.9 350.474C1025.55 350.965 1026.35 351.21 1027.29 351.21C1028.27 351.21 1029.09 350.952 1029.74 350.435C1030.41 349.911 1030.9 349.208 1031.24 348.327C1031.57 347.438 1031.74 346.451 1031.74 345.364C1031.74 344.29 1031.58 343.322 1031.25 342.46C1030.92 341.592 1030.43 340.906 1029.76 340.402C1029.11 339.892 1028.28 339.636 1027.29 339.636C1026.33 339.636 1025.53 339.878 1024.88 340.362C1024.23 340.839 1023.74 341.509 1023.41 342.371C1023.08 343.226 1022.91 344.223 1022.91 345.364ZM1047.3 346.756V337.727H1049.65V353H1047.3V350.415H1047.14C1046.79 351.19 1046.23 351.85 1045.47 352.393C1044.72 352.93 1043.76 353.199 1042.61 353.199C1041.66 353.199 1040.81 352.99 1040.07 352.572C1039.32 352.148 1038.74 351.512 1038.32 350.663C1037.89 349.808 1037.68 348.731 1037.68 347.432V337.727H1040.03V347.273C1040.03 348.386 1040.34 349.275 1040.96 349.938C1041.59 350.6 1042.39 350.932 1043.37 350.932C1043.95 350.932 1044.54 350.783 1045.15 350.484C1045.76 350.186 1046.27 349.729 1046.68 349.112C1047.1 348.496 1047.3 347.71 1047.3 346.756ZM1056.3 343.812V353H1053.95V337.727H1056.22V340.114H1056.41C1056.77 339.338 1057.32 338.715 1058.05 338.244C1058.77 337.767 1059.72 337.528 1060.87 337.528C1061.9 337.528 1062.81 337.741 1063.58 338.165C1064.36 338.582 1064.96 339.219 1065.39 340.074C1065.82 340.922 1066.04 341.996 1066.04 343.295V353H1063.69V343.455C1063.69 342.255 1063.38 341.32 1062.76 340.651C1062.14 339.974 1061.28 339.636 1060.19 339.636C1059.44 339.636 1058.77 339.799 1058.18 340.124C1057.6 340.448 1057.14 340.922 1056.8 341.545C1056.46 342.169 1056.3 342.924 1056.3 343.812ZM1076.49 359.045C1075.36 359.045 1074.38 358.9 1073.57 358.608C1072.75 358.323 1072.07 357.945 1071.53 357.474C1070.99 357.01 1070.57 356.513 1070.25 355.983L1072.12 354.67C1072.33 354.949 1072.6 355.267 1072.92 355.625C1073.25 355.99 1073.69 356.304 1074.25 356.57C1074.83 356.841 1075.57 356.977 1076.49 356.977C1077.73 356.977 1078.74 356.679 1079.54 356.082C1080.35 355.486 1080.75 354.551 1080.75 353.278V350.176H1080.55C1080.38 350.455 1080.13 350.799 1079.81 351.21C1079.5 351.615 1079.05 351.976 1078.46 352.294C1077.88 352.606 1077.09 352.761 1076.09 352.761C1074.86 352.761 1073.75 352.47 1072.77 351.886C1071.8 351.303 1071.03 350.455 1070.46 349.341C1069.89 348.227 1069.61 346.875 1069.61 345.284C1069.61 343.72 1069.89 342.357 1070.44 341.197C1070.99 340.031 1071.75 339.129 1072.73 338.493C1073.71 337.85 1074.85 337.528 1076.13 337.528C1077.13 337.528 1077.92 337.694 1078.5 338.026C1079.09 338.35 1079.54 338.722 1079.85 339.139C1080.17 339.55 1080.42 339.888 1080.59 340.153H1080.83V337.727H1083.09V353.438C1083.09 354.75 1082.8 355.817 1082.2 356.639C1081.61 357.468 1080.81 358.074 1079.81 358.459C1078.82 358.85 1077.71 359.045 1076.49 359.045ZM1076.41 350.653C1077.35 350.653 1078.15 350.438 1078.8 350.007C1079.45 349.576 1079.94 348.956 1080.28 348.148C1080.62 347.339 1080.79 346.371 1080.79 345.244C1080.79 344.144 1080.62 343.173 1080.29 342.331C1079.96 341.489 1079.47 340.83 1078.82 340.352C1078.17 339.875 1077.37 339.636 1076.41 339.636C1075.42 339.636 1074.59 339.888 1073.93 340.392C1073.27 340.896 1072.78 341.572 1072.45 342.42C1072.12 343.269 1071.96 344.21 1071.96 345.244C1071.96 346.305 1072.12 347.243 1072.46 348.058C1072.79 348.867 1073.29 349.503 1073.95 349.967C1074.61 350.425 1075.43 350.653 1076.41 350.653ZM1089.1 353.159C1088.61 353.159 1088.19 352.983 1087.84 352.632C1087.49 352.281 1087.31 351.86 1087.31 351.369C1087.31 350.879 1087.49 350.458 1087.84 350.107C1088.19 349.755 1088.61 349.58 1089.1 349.58C1089.59 349.58 1090.01 349.755 1090.36 350.107C1090.71 350.458 1090.89 350.879 1090.89 351.369C1090.89 351.694 1090.81 351.992 1090.64 352.264C1090.48 352.536 1090.27 352.755 1090 352.92C1089.73 353.08 1089.43 353.159 1089.1 353.159Z" fill="#BFFFDF"/>
<path d="M599 404H321C304.984 404 292 416.984 292 433C292 449.016 304.984 462 321 462H599C615.016 462 628 449.016 628 433C628 416.984 615.016 404 599 404Z" fill="#05DF72" stroke="white" stroke-opacity="0.12"/>
<path d="M327.383 445.5C326.961 445.5 326.565 445.466 326.195 445.398C325.831 445.336 325.529 445.255 325.289 445.156L326.039 442.672C326.43 442.792 326.781 442.857 327.094 442.867C327.411 442.878 327.685 442.805 327.914 442.648C328.148 442.492 328.339 442.227 328.484 441.852L328.68 441.344L324.375 429H327.875L330.359 437.812H330.484L332.992 429H336.516L331.852 442.297C331.628 442.943 331.323 443.505 330.937 443.984C330.557 444.469 330.076 444.841 329.492 445.102C328.909 445.367 328.206 445.5 327.383 445.5ZM345.914 435.891V429H349.242V441H346.047V438.82H345.922C345.651 439.523 345.201 440.089 344.57 440.516C343.945 440.943 343.182 441.156 342.281 441.156C341.479 441.156 340.773 440.974 340.164 440.609C339.555 440.245 339.078 439.727 338.734 439.055C338.396 438.383 338.224 437.578 338.219 436.641V429H341.547V436.047C341.552 436.755 341.742 437.315 342.117 437.727C342.492 438.138 342.995 438.344 343.625 438.344C344.026 438.344 344.401 438.253 344.75 438.07C345.099 437.883 345.38 437.607 345.594 437.242C345.813 436.878 345.919 436.427 345.914 435.891ZM356.326 441.195C355.415 441.195 354.589 440.961 353.85 440.492C353.115 440.018 352.532 439.323 352.1 438.406C351.673 437.484 351.459 436.354 351.459 435.016C351.459 433.641 351.68 432.497 352.123 431.586C352.566 430.669 353.154 429.984 353.889 429.531C354.628 429.073 355.438 428.844 356.318 428.844C356.99 428.844 357.55 428.958 357.998 429.188C358.451 429.411 358.816 429.693 359.092 430.031C359.373 430.365 359.587 430.693 359.732 431.016H359.834V425H363.154V441H359.873V439.078H359.732C359.576 439.411 359.355 439.742 359.068 440.07C358.787 440.393 358.42 440.661 357.967 440.875C357.519 441.089 356.972 441.195 356.326 441.195ZM357.381 438.547C357.917 438.547 358.37 438.401 358.74 438.109C359.115 437.812 359.402 437.398 359.6 436.867C359.803 436.336 359.904 435.714 359.904 435C359.904 434.286 359.805 433.667 359.607 433.141C359.41 432.615 359.123 432.208 358.748 431.922C358.373 431.635 357.917 431.492 357.381 431.492C356.834 431.492 356.373 431.641 355.998 431.937C355.623 432.234 355.339 432.646 355.146 433.172C354.954 433.698 354.857 434.307 354.857 435C354.857 435.698 354.954 436.315 355.146 436.852C355.344 437.383 355.628 437.799 355.998 438.102C356.373 438.398 356.834 438.547 357.381 438.547ZM371.359 441.234C370.125 441.234 369.063 440.984 368.172 440.484C367.286 439.979 366.604 439.266 366.125 438.344C365.646 437.417 365.406 436.32 365.406 435.055C365.406 433.82 365.646 432.737 366.125 431.805C366.604 430.872 367.279 430.146 368.148 429.625C369.023 429.104 370.049 428.844 371.227 428.844C372.018 428.844 372.755 428.971 373.438 429.227C374.125 429.477 374.724 429.854 375.234 430.359C375.75 430.865 376.151 431.5 376.438 432.266C376.724 433.026 376.867 433.917 376.867 434.937V435.852H366.734V433.789H373.734C373.734 433.31 373.63 432.885 373.422 432.516C373.214 432.146 372.924 431.857 372.555 431.648C372.19 431.435 371.766 431.328 371.281 431.328C370.776 431.328 370.328 431.445 369.938 431.68C369.552 431.909 369.25 432.219 369.031 432.609C368.813 432.995 368.701 433.424 368.695 433.898V435.859C368.695 436.453 368.805 436.966 369.023 437.398C369.247 437.831 369.563 438.164 369.969 438.398C370.375 438.633 370.857 438.75 371.414 438.75C371.784 438.75 372.122 438.698 372.43 438.594C372.737 438.49 373 438.333 373.219 438.125C373.438 437.917 373.604 437.661 373.719 437.359L376.797 437.562C376.641 438.302 376.32 438.948 375.836 439.5C375.357 440.047 374.737 440.474 373.977 440.781C373.221 441.083 372.349 441.234 371.359 441.234ZM389.904 429L385.709 441H381.959L377.764 429H381.279L383.771 437.586H383.896L386.381 429H389.904ZM392.801 441.203C392.285 441.203 391.842 441.021 391.473 440.656C391.108 440.286 390.926 439.844 390.926 439.328C390.926 438.818 391.108 438.38 391.473 438.016C391.842 437.651 392.285 437.469 392.801 437.469C393.301 437.469 393.738 437.651 394.113 438.016C394.488 438.38 394.676 438.818 394.676 439.328C394.676 439.672 394.587 439.987 394.41 440.273C394.238 440.555 394.012 440.781 393.73 440.953C393.449 441.12 393.139 441.203 392.801 441.203ZM397.408 441V429H400.58V431.117H400.721C400.971 430.414 401.387 429.859 401.971 429.453C402.554 429.047 403.252 428.844 404.064 428.844C404.887 428.844 405.588 429.049 406.166 429.461C406.744 429.867 407.13 430.419 407.322 431.117H407.447C407.692 430.43 408.135 429.88 408.775 429.469C409.421 429.052 410.184 428.844 411.064 428.844C412.184 428.844 413.093 429.201 413.791 429.914C414.494 430.622 414.846 431.628 414.846 432.93V441H411.525V433.586C411.525 432.919 411.348 432.419 410.994 432.086C410.64 431.753 410.197 431.586 409.666 431.586C409.062 431.586 408.59 431.779 408.252 432.164C407.913 432.544 407.744 433.047 407.744 433.672V441H404.518V433.516C404.518 432.927 404.348 432.458 404.01 432.109C403.676 431.76 403.236 431.586 402.689 431.586C402.32 431.586 401.986 431.68 401.689 431.867C401.398 432.049 401.166 432.307 400.994 432.641C400.822 432.969 400.736 433.354 400.736 433.797V441H397.408ZM419.1 445.5C418.678 445.5 418.282 445.466 417.912 445.398C417.548 445.336 417.245 445.255 417.006 445.156L417.756 442.672C418.146 442.792 418.498 442.857 418.811 442.867C419.128 442.878 419.402 442.805 419.631 442.648C419.865 442.492 420.055 442.227 420.201 441.852L420.396 441.344L416.092 429H419.592L422.076 437.812H422.201L424.709 429H428.232L423.568 442.297C423.344 442.943 423.04 443.505 422.654 443.984C422.274 444.469 421.792 444.841 421.209 445.102C420.626 445.367 419.923 445.5 419.1 445.5ZM431.129 441.203C430.613 441.203 430.171 441.021 429.801 440.656C429.436 440.286 429.254 439.844 429.254 439.328C429.254 438.818 429.436 438.38 429.801 438.016C430.171 437.651 430.613 437.469 431.129 437.469C431.629 437.469 432.066 437.651 432.441 438.016C432.816 438.38 433.004 438.818 433.004 439.328C433.004 439.672 432.915 439.987 432.738 440.273C432.566 440.555 432.34 440.781 432.059 440.953C431.777 441.12 431.467 441.203 431.129 441.203ZM435.736 441V429H439.064V441H435.736ZM437.408 427.453C436.913 427.453 436.489 427.289 436.135 426.961C435.786 426.628 435.611 426.229 435.611 425.766C435.611 425.307 435.786 424.914 436.135 424.586C436.489 424.253 436.913 424.086 437.408 424.086C437.903 424.086 438.325 424.253 438.674 424.586C439.028 424.914 439.205 425.307 439.205 425.766C439.205 426.229 439.028 426.628 438.674 426.961C438.325 427.289 437.903 427.453 437.408 427.453ZM446.152 441.195C445.241 441.195 444.415 440.961 443.676 440.492C442.941 440.018 442.358 439.323 441.926 438.406C441.499 437.484 441.285 436.354 441.285 435.016C441.285 433.641 441.507 432.497 441.949 431.586C442.392 430.669 442.98 429.984 443.715 429.531C444.454 429.073 445.264 428.844 446.145 428.844C446.816 428.844 447.376 428.958 447.824 429.188C448.277 429.411 448.642 429.693 448.918 430.031C449.199 430.365 449.413 430.693 449.559 431.016H449.66V425H452.98V441H449.699V439.078H449.559C449.402 439.411 449.181 439.742 448.895 440.07C448.613 440.393 448.246 440.661 447.793 440.875C447.345 441.089 446.798 441.195 446.152 441.195ZM447.207 438.547C447.743 438.547 448.197 438.401 448.566 438.109C448.941 437.812 449.228 437.398 449.426 436.867C449.629 436.336 449.73 435.714 449.73 435C449.73 434.286 449.632 433.667 449.434 433.141C449.236 432.615 448.949 432.208 448.574 431.922C448.199 431.635 447.743 431.492 447.207 431.492C446.66 431.492 446.199 431.641 445.824 431.937C445.449 432.234 445.165 432.646 444.973 433.172C444.78 433.698 444.684 434.307 444.684 435C444.684 435.698 444.78 436.315 444.973 436.852C445.171 437.383 445.454 437.799 445.824 438.102C446.199 438.398 446.66 438.547 447.207 438.547Z" fill="black"/>
</g>
<defs>
<linearGradient id="paint0_linear_3128_4" x1="0" y1="0" x2="1200" y2="630" gradientUnits="userSpaceOnUse">
<stop stop-color="#08111F"/>
<stop offset="0.58" stop-color="#0D1B2D"/>
<stop offset="1" stop-color="#10233D"/>
</linearGradient>
<clipPath id="clip0_3128_4">
<rect width="1200" height="630" fill="white"/>
</clipPath>
</defs>
</svg>
